<mxfile host="Electron" modified="2023-08-16T15:12:48.917Z" agent="Mozilla/5.0 (X11; Linux x86_64) AppleWebKit/537.36 (KHTML, like Gecko) draw.io/21.6.8 Chrome/114.0.5735.289 Electron/25.5.0 Safari/537.36" etag="OHZaoMn5o0CxfEeK0M8d" version="21.6.8" type="device">
  <diagram name="Page-1" id="c7558073-3199-34d8-9f00-42111426c3f3">
    <mxGraphModel dx="1704" dy="894" grid="1" gridSize="10" guides="1" tooltips="1" connect="1" arrows="1" fold="1" page="1" pageScale="1" pageWidth="4681" pageHeight="3300" background="none" math="0" shadow="0">
      <root>
        <mxCell id="0" />
        <mxCell id="1" parent="0" />
        <mxCell id="QiJwT_M8jZvrQRE63DZS-151" style="edgeStyle=orthogonalEdgeStyle;rounded=0;orthogonalLoop=1;jettySize=auto;html=1;entryX=0;entryY=0.5;entryDx=0;entryDy=0;" edge="1" parent="1" source="IS7OfrcVgxXRb15TEPke-10" target="QiJwT_M8jZvrQRE63DZS-94">
          <mxGeometry relative="1" as="geometry">
            <Array as="points">
              <mxPoint x="1200" y="905" />
              <mxPoint x="1200" y="1270" />
            </Array>
          </mxGeometry>
        </mxCell>
        <mxCell id="QiJwT_M8jZvrQRE63DZS-150" style="edgeStyle=orthogonalEdgeStyle;rounded=0;orthogonalLoop=1;jettySize=auto;html=1;entryX=0;entryY=0.5;entryDx=0;entryDy=0;" edge="1" parent="1" source="IS7OfrcVgxXRb15TEPke-10" target="QiJwT_M8jZvrQRE63DZS-96">
          <mxGeometry relative="1" as="geometry">
            <Array as="points">
              <mxPoint x="1200" y="905" />
              <mxPoint x="1200" y="1150" />
            </Array>
          </mxGeometry>
        </mxCell>
        <mxCell id="IS7OfrcVgxXRb15TEPke-1" value="Moderation User&lt;br&gt;using UniMap Editor" style="shape=umlActor;verticalLabelPosition=bottom;verticalAlign=top;html=1;outlineConnect=0;" parent="1" vertex="1">
          <mxGeometry x="60" y="545" width="30" height="60" as="geometry" />
        </mxCell>
        <mxCell id="IS7OfrcVgxXRb15TEPke-5" value="Naksha" style="shape=umlFrame;whiteSpace=wrap;html=1;pointerEvents=0;fillColor=#d5e8d4;strokeColor=#82b366;strokeWidth=3;" parent="1" vertex="1">
          <mxGeometry x="1250" y="190" width="2640" height="2040" as="geometry" />
        </mxCell>
        <mxCell id="IS7OfrcVgxXRb15TEPke-6" value="Extensions" style="shape=umlFrame;whiteSpace=wrap;html=1;pointerEvents=0;width=73;height=36;fillColor=none;dashed=1;strokeColor=#82b366;strokeWidth=2;" parent="1" vertex="1">
          <mxGeometry x="2760" y="800" width="410" height="290" as="geometry" />
        </mxCell>
        <mxCell id="IS7OfrcVgxXRb15TEPke-9" value="Moderation DB" style="shape=datastore;whiteSpace=wrap;html=1;fillColor=#fff2cc;strokeColor=#d6b656;" parent="1" vertex="1">
          <mxGeometry x="920" y="500" width="70" height="70" as="geometry" />
        </mxCell>
        <mxCell id="IS7OfrcVgxXRb15TEPke-84" style="edgeStyle=orthogonalEdgeStyle;rounded=0;orthogonalLoop=1;jettySize=auto;html=1;entryX=0.5;entryY=1;entryDx=0;entryDy=0;" parent="1" source="IS7OfrcVgxXRb15TEPke-10" target="IS7OfrcVgxXRb15TEPke-80" edge="1">
          <mxGeometry relative="1" as="geometry" />
        </mxCell>
        <mxCell id="IS7OfrcVgxXRb15TEPke-109" style="edgeStyle=orthogonalEdgeStyle;rounded=0;orthogonalLoop=1;jettySize=auto;html=1;" parent="1" source="IS7OfrcVgxXRb15TEPke-10" target="IS7OfrcVgxXRb15TEPke-41" edge="1">
          <mxGeometry relative="1" as="geometry">
            <Array as="points">
              <mxPoint x="1150" y="905" />
              <mxPoint x="1150" y="905" />
            </Array>
          </mxGeometry>
        </mxCell>
        <mxCell id="IS7OfrcVgxXRb15TEPke-124" value="" style="edgeStyle=orthogonalEdgeStyle;rounded=0;orthogonalLoop=1;jettySize=auto;html=1;" parent="1" source="IS7OfrcVgxXRb15TEPke-10" target="IS7OfrcVgxXRb15TEPke-80" edge="1">
          <mxGeometry relative="1" as="geometry" />
        </mxCell>
        <mxCell id="QiJwT_M8jZvrQRE63DZS-1" value="Do authentication" style="edgeLabel;html=1;align=center;verticalAlign=middle;resizable=0;points=[];" vertex="1" connectable="0" parent="IS7OfrcVgxXRb15TEPke-124">
          <mxGeometry x="-0.1576" y="1" relative="1" as="geometry">
            <mxPoint as="offset" />
          </mxGeometry>
        </mxCell>
        <mxCell id="IS7OfrcVgxXRb15TEPke-146" style="edgeStyle=orthogonalEdgeStyle;rounded=0;orthogonalLoop=1;jettySize=auto;html=1;entryX=0;entryY=0.5;entryDx=0;entryDy=0;" parent="1" source="IS7OfrcVgxXRb15TEPke-10" target="IS7OfrcVgxXRb15TEPke-139" edge="1">
          <mxGeometry relative="1" as="geometry">
            <Array as="points">
              <mxPoint x="1200" y="905" />
              <mxPoint x="1200" y="670" />
            </Array>
          </mxGeometry>
        </mxCell>
        <mxCell id="IS7OfrcVgxXRb15TEPke-147" style="edgeStyle=orthogonalEdgeStyle;rounded=0;orthogonalLoop=1;jettySize=auto;html=1;entryX=0;entryY=0.5;entryDx=0;entryDy=0;" parent="1" source="IS7OfrcVgxXRb15TEPke-10" target="IS7OfrcVgxXRb15TEPke-43" edge="1">
          <mxGeometry relative="1" as="geometry">
            <Array as="points">
              <mxPoint x="1200" y="905" />
              <mxPoint x="1200" y="780" />
            </Array>
          </mxGeometry>
        </mxCell>
        <mxCell id="IS7OfrcVgxXRb15TEPke-148" style="edgeStyle=orthogonalEdgeStyle;rounded=0;orthogonalLoop=1;jettySize=auto;html=1;entryX=0;entryY=0.5;entryDx=0;entryDy=0;" parent="1" source="IS7OfrcVgxXRb15TEPke-10" target="IS7OfrcVgxXRb15TEPke-45" edge="1">
          <mxGeometry relative="1" as="geometry">
            <Array as="points">
              <mxPoint x="1200" y="905" />
              <mxPoint x="1200" y="1025" />
            </Array>
          </mxGeometry>
        </mxCell>
        <mxCell id="QiJwT_M8jZvrQRE63DZS-2" value="&amp;lt; Send request with signed JWT token with access rights of user &amp;gt;" style="edgeLabel;html=1;align=center;verticalAlign=middle;resizable=0;points=[];" vertex="1" connectable="0" parent="IS7OfrcVgxXRb15TEPke-148">
          <mxGeometry x="-0.6062" y="1" relative="1" as="geometry">
            <mxPoint x="62" y="1" as="offset" />
          </mxGeometry>
        </mxCell>
        <mxCell id="IS7OfrcVgxXRb15TEPke-10" value="Naksha Proxy" style="shape=module;align=left;spacingLeft=20;align=center;verticalAlign=top;whiteSpace=wrap;html=1;fillColor=#fff2cc;strokeColor=#d6b656;" parent="1" vertex="1">
          <mxGeometry x="470" y="880" width="220" height="50" as="geometry" />
        </mxCell>
        <mxCell id="IS7OfrcVgxXRb15TEPke-128" style="edgeStyle=orthogonalEdgeStyle;rounded=0;orthogonalLoop=1;jettySize=auto;html=1;fillColor=#dae8fc;strokeColor=#6c8ebf;entryX=0;entryY=0.3;entryDx=0;entryDy=0;" parent="1" source="IS7OfrcVgxXRb15TEPke-15" target="IS7OfrcVgxXRb15TEPke-50" edge="1">
          <mxGeometry relative="1" as="geometry" />
        </mxCell>
        <mxCell id="IS7OfrcVgxXRb15TEPke-15" value="«IEventHandler»&lt;br&gt;&lt;b&gt;DCUHandler&lt;/b&gt;" style="html=1;dropTarget=0;whiteSpace=wrap;fillColor=#dae8fc;strokeColor=#6c8ebf;" parent="1" vertex="1">
          <mxGeometry x="2880" y="930" width="180" height="90" as="geometry" />
        </mxCell>
        <mxCell id="IS7OfrcVgxXRb15TEPke-16" value="" style="shape=module;jettyWidth=8;jettyHeight=4;" parent="IS7OfrcVgxXRb15TEPke-15" vertex="1">
          <mxGeometry x="1" width="20" height="20" relative="1" as="geometry">
            <mxPoint x="-27" y="7" as="offset" />
          </mxGeometry>
        </mxCell>
        <mxCell id="IS7OfrcVgxXRb15TEPke-129" style="edgeStyle=orthogonalEdgeStyle;rounded=0;orthogonalLoop=1;jettySize=auto;html=1;entryX=0;entryY=0.7;entryDx=0;entryDy=0;fillColor=#dae8fc;strokeColor=#6c8ebf;" parent="1" source="IS7OfrcVgxXRb15TEPke-33" target="IS7OfrcVgxXRb15TEPke-50" edge="1">
          <mxGeometry relative="1" as="geometry">
            <Array as="points" />
          </mxGeometry>
        </mxCell>
        <mxCell id="IS7OfrcVgxXRb15TEPke-33" value="«IStorage»&lt;br&gt;&lt;b&gt;ConsistentStore&lt;/b&gt;" style="html=1;dropTarget=0;whiteSpace=wrap;fillColor=#1ba1e2;strokeColor=#006EAF;fontColor=#ffffff;" parent="1" vertex="1">
          <mxGeometry x="2520" y="1082" width="160" height="60" as="geometry" />
        </mxCell>
        <mxCell id="IS7OfrcVgxXRb15TEPke-34" value="" style="shape=module;jettyWidth=8;jettyHeight=4;" parent="IS7OfrcVgxXRb15TEPke-33" vertex="1">
          <mxGeometry x="1" width="20" height="20" relative="1" as="geometry">
            <mxPoint x="-27" y="7" as="offset" />
          </mxGeometry>
        </mxCell>
        <mxCell id="IS7OfrcVgxXRb15TEPke-107" style="edgeStyle=orthogonalEdgeStyle;rounded=0;orthogonalLoop=1;jettySize=auto;html=1;entryX=0;entryY=0.5;entryDx=0;entryDy=0;" parent="1" source="IS7OfrcVgxXRb15TEPke-41" target="IS7OfrcVgxXRb15TEPke-105" edge="1">
          <mxGeometry relative="1" as="geometry" />
        </mxCell>
        <mxCell id="IS7OfrcVgxXRb15TEPke-125" value="" style="edgeStyle=orthogonalEdgeStyle;rounded=0;orthogonalLoop=1;jettySize=auto;html=1;" parent="1" source="IS7OfrcVgxXRb15TEPke-41" target="IS7OfrcVgxXRb15TEPke-105" edge="1">
          <mxGeometry relative="1" as="geometry" />
        </mxCell>
        <mxCell id="IS7OfrcVgxXRb15TEPke-41" value="«Space»&lt;br&gt;&lt;b&gt;Topology-View&lt;/b&gt;" style="html=1;dropTarget=0;whiteSpace=wrap;fillColor=#d5e8d4;strokeColor=#82b366;" parent="1" vertex="1">
          <mxGeometry x="1270" y="870" width="205" height="60" as="geometry" />
        </mxCell>
        <mxCell id="IS7OfrcVgxXRb15TEPke-42" value="" style="shape=module;jettyWidth=8;jettyHeight=4;" parent="IS7OfrcVgxXRb15TEPke-41" vertex="1">
          <mxGeometry x="1" width="20" height="20" relative="1" as="geometry">
            <mxPoint x="-27" y="7" as="offset" />
          </mxGeometry>
        </mxCell>
        <mxCell id="QiJwT_M8jZvrQRE63DZS-54" style="edgeStyle=orthogonalEdgeStyle;rounded=0;orthogonalLoop=1;jettySize=auto;html=1;" edge="1" parent="1" source="IS7OfrcVgxXRb15TEPke-43" target="QiJwT_M8jZvrQRE63DZS-49">
          <mxGeometry relative="1" as="geometry" />
        </mxCell>
        <mxCell id="IS7OfrcVgxXRb15TEPke-43" value="«Space»&lt;br&gt;&lt;b&gt;Topology-Delta (DLB)&lt;/b&gt;" style="html=1;dropTarget=0;whiteSpace=wrap;fillColor=#d5e8d4;strokeColor=#82b366;" parent="1" vertex="1">
          <mxGeometry x="1270" y="750" width="205" height="60" as="geometry" />
        </mxCell>
        <mxCell id="IS7OfrcVgxXRb15TEPke-44" value="" style="shape=module;jettyWidth=8;jettyHeight=4;" parent="IS7OfrcVgxXRb15TEPke-43" vertex="1">
          <mxGeometry x="1" width="20" height="20" relative="1" as="geometry">
            <mxPoint x="-27" y="7" as="offset" />
          </mxGeometry>
        </mxCell>
        <mxCell id="IS7OfrcVgxXRb15TEPke-149" style="edgeStyle=orthogonalEdgeStyle;rounded=0;orthogonalLoop=1;jettySize=auto;html=1;entryX=0;entryY=0.5;entryDx=0;entryDy=0;fillColor=#f8cecc;strokeColor=#b85450;" parent="1" source="IS7OfrcVgxXRb15TEPke-45" target="IS7OfrcVgxXRb15TEPke-122" edge="1">
          <mxGeometry relative="1" as="geometry">
            <Array as="points">
              <mxPoint x="2030" y="1010" />
              <mxPoint x="2030" y="1010" />
            </Array>
          </mxGeometry>
        </mxCell>
        <mxCell id="IS7OfrcVgxXRb15TEPke-151" value="&amp;lt; alternative short term solution &amp;gt;" style="edgeLabel;html=1;align=center;verticalAlign=middle;resizable=0;points=[];" parent="IS7OfrcVgxXRb15TEPke-149" vertex="1" connectable="0">
          <mxGeometry x="-0.1334" y="1" relative="1" as="geometry">
            <mxPoint x="257" y="1" as="offset" />
          </mxGeometry>
        </mxCell>
        <mxCell id="IS7OfrcVgxXRb15TEPke-45" value="«Space»&lt;br&gt;&lt;b&gt;Topology-Base&lt;/b&gt;" style="html=1;dropTarget=0;whiteSpace=wrap;fillColor=#d5e8d4;strokeColor=#82b366;" parent="1" vertex="1">
          <mxGeometry x="1270" y="995" width="205" height="60" as="geometry" />
        </mxCell>
        <mxCell id="IS7OfrcVgxXRb15TEPke-46" value="" style="shape=module;jettyWidth=8;jettyHeight=4;" parent="IS7OfrcVgxXRb15TEPke-45" vertex="1">
          <mxGeometry x="1" width="20" height="20" relative="1" as="geometry">
            <mxPoint x="-27" y="7" as="offset" />
          </mxGeometry>
        </mxCell>
        <mxCell id="IS7OfrcVgxXRb15TEPke-49" value="DCU" style="shape=umlFrame;whiteSpace=wrap;html=1;pointerEvents=0;fillColor=#dae8fc;strokeColor=#6c8ebf;strokeWidth=3;" parent="1" vertex="1">
          <mxGeometry x="3930" y="970" width="620" height="440" as="geometry" />
        </mxCell>
        <mxCell id="IS7OfrcVgxXRb15TEPke-50" value="Consistent&lt;br&gt;Store" style="shape=datastore;whiteSpace=wrap;html=1;fillColor=#dae8fc;strokeColor=#6c8ebf;" parent="1" vertex="1">
          <mxGeometry x="4010" y="1070" width="60" height="60" as="geometry" />
        </mxCell>
        <mxCell id="IS7OfrcVgxXRb15TEPke-103" style="edgeStyle=orthogonalEdgeStyle;rounded=0;orthogonalLoop=1;jettySize=auto;html=1;entryX=1;entryY=0.5;entryDx=0;entryDy=0;fillColor=#d5e8d4;strokeColor=#82b366;dashed=1;strokeWidth=2;" parent="1" source="IS7OfrcVgxXRb15TEPke-51" target="IS7OfrcVgxXRb15TEPke-9" edge="1">
          <mxGeometry relative="1" as="geometry" />
        </mxCell>
        <mxCell id="IS7OfrcVgxXRb15TEPke-51" value="«IStorage»&lt;br&gt;&lt;b&gt;PsqlStorage&lt;/b&gt;" style="html=1;dropTarget=0;whiteSpace=wrap;fillColor=#60a917;strokeColor=#2D7600;fontColor=#ffffff;" parent="1" vertex="1">
          <mxGeometry x="1590" y="505" width="160" height="60" as="geometry" />
        </mxCell>
        <mxCell id="IS7OfrcVgxXRb15TEPke-52" value="" style="shape=module;jettyWidth=8;jettyHeight=4;" parent="IS7OfrcVgxXRb15TEPke-51" vertex="1">
          <mxGeometry x="1" width="20" height="20" relative="1" as="geometry">
            <mxPoint x="-27" y="7" as="offset" />
          </mxGeometry>
        </mxCell>
        <mxCell id="QiJwT_M8jZvrQRE63DZS-28" style="edgeStyle=orthogonalEdgeStyle;rounded=0;orthogonalLoop=1;jettySize=auto;html=1;" edge="1" parent="1" source="IS7OfrcVgxXRb15TEPke-53" target="IS7OfrcVgxXRb15TEPke-131">
          <mxGeometry relative="1" as="geometry">
            <Array as="points">
              <mxPoint x="4090" y="1040" />
            </Array>
          </mxGeometry>
        </mxCell>
        <mxCell id="IS7OfrcVgxXRb15TEPke-53" value="«DCU»&lt;br&gt;&lt;b&gt;BucketProcessor&lt;/b&gt;" style="html=1;dropTarget=0;whiteSpace=wrap;fillColor=#dae8fc;strokeColor=#6c8ebf;" parent="1" vertex="1">
          <mxGeometry x="4160" y="1130" width="180" height="90" as="geometry" />
        </mxCell>
        <mxCell id="IS7OfrcVgxXRb15TEPke-54" value="" style="shape=module;jettyWidth=8;jettyHeight=4;" parent="IS7OfrcVgxXRb15TEPke-53" vertex="1">
          <mxGeometry x="1" width="20" height="20" relative="1" as="geometry">
            <mxPoint x="-27" y="7" as="offset" />
          </mxGeometry>
        </mxCell>
        <mxCell id="QiJwT_M8jZvrQRE63DZS-72" style="edgeStyle=orthogonalEdgeStyle;rounded=0;orthogonalLoop=1;jettySize=auto;html=1;" edge="1" parent="1" source="IS7OfrcVgxXRb15TEPke-55" target="IS7OfrcVgxXRb15TEPke-131">
          <mxGeometry relative="1" as="geometry">
            <Array as="points">
              <mxPoint x="4440" y="1304" />
              <mxPoint x="4440" y="1010" />
            </Array>
          </mxGeometry>
        </mxCell>
        <mxCell id="IS7OfrcVgxXRb15TEPke-55" value="«DCU»&lt;br&gt;&lt;b&gt;Change-Set-Publisher&lt;/b&gt;" style="html=1;dropTarget=0;whiteSpace=wrap;fillColor=#dae8fc;strokeColor=#6c8ebf;" parent="1" vertex="1">
          <mxGeometry x="4160" y="1259" width="180" height="90" as="geometry" />
        </mxCell>
        <mxCell id="IS7OfrcVgxXRb15TEPke-56" value="" style="shape=module;jettyWidth=8;jettyHeight=4;" parent="IS7OfrcVgxXRb15TEPke-55" vertex="1">
          <mxGeometry x="1" width="20" height="20" relative="1" as="geometry">
            <mxPoint x="-27" y="7" as="offset" />
          </mxGeometry>
        </mxCell>
        <mxCell id="IS7OfrcVgxXRb15TEPke-57" value="Wikvaya" style="shape=umlFrame;whiteSpace=wrap;html=1;pointerEvents=0;fillColor=#fff2cc;strokeColor=#d6b656;strokeWidth=3;" parent="1" vertex="1">
          <mxGeometry x="480" y="440" width="580" height="520" as="geometry" />
        </mxCell>
        <mxCell id="IS7OfrcVgxXRb15TEPke-58" value="Wikvaya DB" style="shape=datastore;whiteSpace=wrap;html=1;fillColor=#fff2cc;strokeColor=#d6b656;" parent="1" vertex="1">
          <mxGeometry x="770" y="500" width="70" height="70" as="geometry" />
        </mxCell>
        <mxCell id="IS7OfrcVgxXRb15TEPke-67" value="UTM" style="shape=umlFrame;whiteSpace=wrap;html=1;pointerEvents=0;fillColor=#e1d5e7;strokeColor=#9673a6;strokeWidth=3;" parent="1" vertex="1">
          <mxGeometry x="480" y="1070" width="580" height="760" as="geometry" />
        </mxCell>
        <mxCell id="IS7OfrcVgxXRb15TEPke-73" value="Two options:&lt;br&gt;1. Implement open source IStorage, then use default storage handler.&lt;br&gt;2. Implement using proprietary library and code, then use an extension handler." style="html=1;shadow=0;dashed=0;shape=mxgraph.bootstrap.rrect;rSize=5;strokeColor=#999999;strokeWidth=1;fillColor=#FFFFFF;fontColor=#6C767D;whiteSpace=wrap;align=left;verticalAlign=middle;spacingLeft=10;fontSize=14;spacing=10;" parent="1" vertex="1">
          <mxGeometry x="1830" y="860" width="540" height="90" as="geometry" />
        </mxCell>
        <mxCell id="IS7OfrcVgxXRb15TEPke-82" style="edgeStyle=orthogonalEdgeStyle;rounded=0;orthogonalLoop=1;jettySize=auto;html=1;entryX=0.15;entryY=0.95;entryDx=0;entryDy=0;entryPerimeter=0;exitX=1;exitY=0.25;exitDx=0;exitDy=0;" parent="1" source="IS7OfrcVgxXRb15TEPke-76" target="IS7OfrcVgxXRb15TEPke-58" edge="1">
          <mxGeometry relative="1" as="geometry" />
        </mxCell>
        <mxCell id="IS7OfrcVgxXRb15TEPke-101" value="Generate access matrix" style="edgeLabel;html=1;align=center;verticalAlign=middle;resizable=0;points=[];" parent="IS7OfrcVgxXRb15TEPke-82" vertex="1" connectable="0">
          <mxGeometry x="-0.646" y="1" relative="1" as="geometry">
            <mxPoint x="-10" y="-31" as="offset" />
          </mxGeometry>
        </mxCell>
        <mxCell id="IS7OfrcVgxXRb15TEPke-90" style="edgeStyle=orthogonalEdgeStyle;rounded=0;orthogonalLoop=1;jettySize=auto;html=1;" parent="1" source="IS7OfrcVgxXRb15TEPke-76" target="IS7OfrcVgxXRb15TEPke-80" edge="1">
          <mxGeometry relative="1" as="geometry" />
        </mxCell>
        <mxCell id="IS7OfrcVgxXRb15TEPke-100" value="Create temporary token with access matrix" style="edgeLabel;html=1;align=center;verticalAlign=middle;resizable=0;points=[];" parent="IS7OfrcVgxXRb15TEPke-90" vertex="1" connectable="0">
          <mxGeometry x="-0.2614" y="-1" relative="1" as="geometry">
            <mxPoint x="61" y="5" as="offset" />
          </mxGeometry>
        </mxCell>
        <mxCell id="IS7OfrcVgxXRb15TEPke-76" value="UPM API&lt;br&gt;&lt;i&gt;&lt;font style=&quot;font-size: 11px;&quot;&gt;User Permission Management&lt;/font&gt;&lt;/i&gt;" style="shape=module;align=left;spacingLeft=20;align=center;verticalAlign=top;whiteSpace=wrap;html=1;fillColor=#fff2cc;strokeColor=#d6b656;" parent="1" vertex="1">
          <mxGeometry x="470" y="690" width="220" height="50" as="geometry" />
        </mxCell>
        <mxCell id="IS7OfrcVgxXRb15TEPke-102" style="edgeStyle=orthogonalEdgeStyle;rounded=0;orthogonalLoop=1;jettySize=auto;html=1;" parent="1" source="IS7OfrcVgxXRb15TEPke-77" target="IS7OfrcVgxXRb15TEPke-58" edge="1">
          <mxGeometry relative="1" as="geometry" />
        </mxCell>
        <mxCell id="IS7OfrcVgxXRb15TEPke-77" value="Map Feedback API" style="shape=module;align=left;spacingLeft=20;align=center;verticalAlign=top;whiteSpace=wrap;html=1;fillColor=#fff2cc;strokeColor=#d6b656;" parent="1" vertex="1">
          <mxGeometry x="470" y="570" width="220" height="50" as="geometry" />
        </mxCell>
        <mxCell id="IS7OfrcVgxXRb15TEPke-81" style="edgeStyle=orthogonalEdgeStyle;rounded=0;orthogonalLoop=1;jettySize=auto;html=1;entryX=0;entryY=0.5;entryDx=0;entryDy=0;" parent="1" source="IS7OfrcVgxXRb15TEPke-78" target="IS7OfrcVgxXRb15TEPke-58" edge="1">
          <mxGeometry relative="1" as="geometry" />
        </mxCell>
        <mxCell id="IS7OfrcVgxXRb15TEPke-78" value="Geospace API" style="shape=module;align=left;spacingLeft=20;align=center;verticalAlign=top;whiteSpace=wrap;html=1;fillColor=#fff2cc;strokeColor=#d6b656;" parent="1" vertex="1">
          <mxGeometry x="470" y="510" width="220" height="50" as="geometry" />
        </mxCell>
        <mxCell id="IS7OfrcVgxXRb15TEPke-83" style="edgeStyle=orthogonalEdgeStyle;rounded=0;orthogonalLoop=1;jettySize=auto;html=1;entryX=0.5;entryY=1;entryDx=0;entryDy=0;" parent="1" source="IS7OfrcVgxXRb15TEPke-80" target="IS7OfrcVgxXRb15TEPke-58" edge="1">
          <mxGeometry relative="1" as="geometry" />
        </mxCell>
        <mxCell id="IS7OfrcVgxXRb15TEPke-80" value="Token API" style="shape=module;align=left;spacingLeft=20;align=center;verticalAlign=top;whiteSpace=wrap;html=1;fillColor=#fff2cc;strokeColor=#d6b656;" parent="1" vertex="1">
          <mxGeometry x="470" y="780" width="220" height="50" as="geometry" />
        </mxCell>
        <mxCell id="IS7OfrcVgxXRb15TEPke-86" value="HA token" style="html=1;verticalAlign=bottom;endArrow=block;edgeStyle=elbowEdgeStyle;elbow=vertical;curved=0;rounded=0;entryX=0;entryY=0;entryDx=0;entryDy=15;entryPerimeter=0;" parent="1" source="IS7OfrcVgxXRb15TEPke-87" target="IS7OfrcVgxXRb15TEPke-76" edge="1">
          <mxGeometry width="80" relative="1" as="geometry">
            <mxPoint x="220" y="540" as="sourcePoint" />
            <mxPoint x="300" y="540" as="targetPoint" />
            <Array as="points" />
          </mxGeometry>
        </mxCell>
        <mxCell id="IS7OfrcVgxXRb15TEPke-87" value="" style="html=1;points=[];perimeter=orthogonalPerimeter;outlineConnect=0;targetShapes=umlLifeline;portConstraint=eastwest;newEdgeStyle={&quot;edgeStyle&quot;:&quot;elbowEdgeStyle&quot;,&quot;elbow&quot;:&quot;vertical&quot;,&quot;curved&quot;:0,&quot;rounded&quot;:0};" parent="1" vertex="1">
          <mxGeometry x="170" y="180" width="10" height="790" as="geometry" />
        </mxCell>
        <mxCell id="IS7OfrcVgxXRb15TEPke-88" value="Naksha token and user details" style="html=1;verticalAlign=bottom;endArrow=open;dashed=1;endSize=8;edgeStyle=elbowEdgeStyle;elbow=vertical;curved=0;rounded=0;exitX=0;exitY=0;exitDx=0;exitDy=35;exitPerimeter=0;" parent="1" source="IS7OfrcVgxXRb15TEPke-76" target="IS7OfrcVgxXRb15TEPke-87" edge="1">
          <mxGeometry relative="1" as="geometry">
            <mxPoint x="380" y="610" as="sourcePoint" />
            <mxPoint x="300" y="610" as="targetPoint" />
          </mxGeometry>
        </mxCell>
        <mxCell id="IS7OfrcVgxXRb15TEPke-91" value="Platform" style="shape=umlFrame;whiteSpace=wrap;html=1;pointerEvents=0;width=73;height=36;fillColor=#f8cecc;strokeColor=#b85450;strokeWidth=3;" parent="1" vertex="1">
          <mxGeometry x="480" y="80" width="580" height="320" as="geometry" />
        </mxCell>
        <mxCell id="IS7OfrcVgxXRb15TEPke-92" value="GET /spaces/foo/features?id=a,b" style="html=1;verticalAlign=bottom;endArrow=block;edgeStyle=elbowEdgeStyle;elbow=vertical;curved=0;rounded=0;entryX=0;entryY=0;entryDx=0;entryDy=15;entryPerimeter=0;" parent="1" source="IS7OfrcVgxXRb15TEPke-87" target="IS7OfrcVgxXRb15TEPke-10" edge="1">
          <mxGeometry width="80" relative="1" as="geometry">
            <mxPoint x="190" y="880" as="sourcePoint" />
            <mxPoint x="480" y="880" as="targetPoint" />
            <Array as="points" />
          </mxGeometry>
        </mxCell>
        <mxCell id="IS7OfrcVgxXRb15TEPke-93" value="feature-collection" style="html=1;verticalAlign=bottom;endArrow=open;dashed=1;endSize=8;edgeStyle=elbowEdgeStyle;elbow=vertical;curved=0;rounded=0;exitX=0;exitY=0;exitDx=0;exitDy=35;exitPerimeter=0;" parent="1" source="IS7OfrcVgxXRb15TEPke-10" edge="1">
          <mxGeometry relative="1" as="geometry">
            <mxPoint x="470" y="900" as="sourcePoint" />
            <mxPoint x="180" y="915" as="targetPoint" />
            <Array as="points">
              <mxPoint x="320" y="915" />
            </Array>
          </mxGeometry>
        </mxCell>
        <mxCell id="IS7OfrcVgxXRb15TEPke-95" value="HERE Account" style="shape=module;align=left;spacingLeft=20;align=center;verticalAlign=top;whiteSpace=wrap;html=1;fillColor=#f8cecc;strokeColor=#b85450;" parent="1" vertex="1">
          <mxGeometry x="470" y="180" width="220" height="50" as="geometry" />
        </mxCell>
        <mxCell id="IS7OfrcVgxXRb15TEPke-96" value="login" style="html=1;verticalAlign=bottom;endArrow=block;edgeStyle=elbowEdgeStyle;elbow=vertical;curved=0;rounded=0;entryX=0;entryY=0;entryDx=0;entryDy=15;entryPerimeter=0;" parent="1" source="IS7OfrcVgxXRb15TEPke-87" target="IS7OfrcVgxXRb15TEPke-95" edge="1">
          <mxGeometry width="80" relative="1" as="geometry">
            <mxPoint x="210" y="242.5" as="sourcePoint" />
            <mxPoint x="490" y="237.5" as="targetPoint" />
            <Array as="points" />
          </mxGeometry>
        </mxCell>
        <mxCell id="IS7OfrcVgxXRb15TEPke-97" value="HA token" style="html=1;verticalAlign=bottom;endArrow=open;dashed=1;endSize=8;edgeStyle=elbowEdgeStyle;elbow=vertical;curved=0;rounded=0;exitX=0;exitY=0;exitDx=0;exitDy=35;exitPerimeter=0;" parent="1" source="IS7OfrcVgxXRb15TEPke-95" target="IS7OfrcVgxXRb15TEPke-87" edge="1">
          <mxGeometry relative="1" as="geometry">
            <mxPoint x="470" y="210" as="sourcePoint" />
            <mxPoint x="200" y="210" as="targetPoint" />
          </mxGeometry>
        </mxCell>
        <mxCell id="IS7OfrcVgxXRb15TEPke-98" value="&amp;lt; Resolve HERE token to user details &amp;gt;" style="html=1;verticalAlign=bottom;endArrow=block;edgeStyle=elbowEdgeStyle;elbow=vertical;curved=0;rounded=0;entryX=1;entryY=0.25;entryDx=0;entryDy=0;exitX=1;exitY=0.5;exitDx=0;exitDy=0;startArrow=none;startFill=0;" parent="1" source="IS7OfrcVgxXRb15TEPke-76" target="IS7OfrcVgxXRb15TEPke-95" edge="1">
          <mxGeometry x="-0.6492" y="-5" width="80" relative="1" as="geometry">
            <mxPoint x="1060" y="550.3333333333333" as="sourcePoint" />
            <mxPoint x="1280" y="550" as="targetPoint" />
            <Array as="points">
              <mxPoint x="1170" y="460" />
            </Array>
            <mxPoint as="offset" />
          </mxGeometry>
        </mxCell>
        <mxCell id="IS7OfrcVgxXRb15TEPke-111" style="edgeStyle=orthogonalEdgeStyle;rounded=0;orthogonalLoop=1;jettySize=auto;html=1;exitX=0.25;exitY=1;exitDx=0;exitDy=0;" parent="1" source="IS7OfrcVgxXRb15TEPke-105" target="IS7OfrcVgxXRb15TEPke-45" edge="1">
          <mxGeometry relative="1" as="geometry">
            <Array as="points">
              <mxPoint x="1620" y="960" />
              <mxPoint x="1372" y="960" />
            </Array>
          </mxGeometry>
        </mxCell>
        <mxCell id="IS7OfrcVgxXRb15TEPke-115" style="edgeStyle=orthogonalEdgeStyle;rounded=0;orthogonalLoop=1;jettySize=auto;html=1;entryX=0.5;entryY=1;entryDx=0;entryDy=0;exitX=0.25;exitY=0;exitDx=0;exitDy=0;" parent="1" source="IS7OfrcVgxXRb15TEPke-105" target="IS7OfrcVgxXRb15TEPke-43" edge="1">
          <mxGeometry relative="1" as="geometry">
            <Array as="points">
              <mxPoint x="1580" y="840" />
              <mxPoint x="1373" y="840" />
              <mxPoint x="1373" y="825" />
            </Array>
          </mxGeometry>
        </mxCell>
        <mxCell id="IS7OfrcVgxXRb15TEPke-145" style="edgeStyle=orthogonalEdgeStyle;rounded=0;orthogonalLoop=1;jettySize=auto;html=1;entryX=0.5;entryY=1;entryDx=0;entryDy=0;dashed=1;" parent="1" source="IS7OfrcVgxXRb15TEPke-105" target="IS7OfrcVgxXRb15TEPke-139" edge="1">
          <mxGeometry relative="1" as="geometry">
            <Array as="points">
              <mxPoint x="1650" y="730" />
              <mxPoint x="1372" y="730" />
            </Array>
          </mxGeometry>
        </mxCell>
        <mxCell id="IS7OfrcVgxXRb15TEPke-105" value="«IEventHandler»&lt;br&gt;&lt;b&gt;ViewHandler&lt;/b&gt;" style="html=1;dropTarget=0;whiteSpace=wrap;fillColor=#d5e8d4;strokeColor=#82b366;" parent="1" vertex="1">
          <mxGeometry x="1580" y="870" width="160" height="60" as="geometry" />
        </mxCell>
        <mxCell id="IS7OfrcVgxXRb15TEPke-106" value="" style="shape=module;jettyWidth=8;jettyHeight=4;" parent="IS7OfrcVgxXRb15TEPke-105" vertex="1">
          <mxGeometry x="1" width="20" height="20" relative="1" as="geometry">
            <mxPoint x="-27" y="7" as="offset" />
          </mxGeometry>
        </mxCell>
        <mxCell id="IS7OfrcVgxXRb15TEPke-121" style="edgeStyle=orthogonalEdgeStyle;rounded=0;orthogonalLoop=1;jettySize=auto;html=1;entryX=0;entryY=0.5;entryDx=0;entryDy=0;" parent="1" source="IS7OfrcVgxXRb15TEPke-118" target="IS7OfrcVgxXRb15TEPke-33" edge="1">
          <mxGeometry relative="1" as="geometry" />
        </mxCell>
        <mxCell id="IS7OfrcVgxXRb15TEPke-118" value="«IEventHandler»&lt;br&gt;&lt;b&gt;DefaultStorageHandler&lt;/b&gt;" style="html=1;dropTarget=0;whiteSpace=wrap;fillColor=#d5e8d4;strokeColor=#82b366;" parent="1" vertex="1">
          <mxGeometry x="2299.95" y="1082" width="160" height="60" as="geometry" />
        </mxCell>
        <mxCell id="IS7OfrcVgxXRb15TEPke-119" value="" style="shape=module;jettyWidth=8;jettyHeight=4;" parent="IS7OfrcVgxXRb15TEPke-118" vertex="1">
          <mxGeometry x="1" width="20" height="20" relative="1" as="geometry">
            <mxPoint x="-27" y="7" as="offset" />
          </mxGeometry>
        </mxCell>
        <mxCell id="QiJwT_M8jZvrQRE63DZS-15" style="edgeStyle=orthogonalEdgeStyle;rounded=0;orthogonalLoop=1;jettySize=auto;html=1;" edge="1" parent="1" source="IS7OfrcVgxXRb15TEPke-122" target="IS7OfrcVgxXRb15TEPke-15">
          <mxGeometry relative="1" as="geometry" />
        </mxCell>
        <mxCell id="IS7OfrcVgxXRb15TEPke-122" value="«IEventHandler»&lt;br&gt;&lt;b&gt;ExtensionHandler&lt;/b&gt;" style="html=1;dropTarget=0;whiteSpace=wrap;fillColor=#d5e8d4;strokeColor=#82b366;" parent="1" vertex="1">
          <mxGeometry x="2300" y="980" width="160" height="60" as="geometry" />
        </mxCell>
        <mxCell id="IS7OfrcVgxXRb15TEPke-123" value="" style="shape=module;jettyWidth=8;jettyHeight=4;" parent="IS7OfrcVgxXRb15TEPke-122" vertex="1">
          <mxGeometry x="1" width="20" height="20" relative="1" as="geometry">
            <mxPoint x="-27" y="7" as="offset" />
          </mxGeometry>
        </mxCell>
        <mxCell id="IS7OfrcVgxXRb15TEPke-120" style="edgeStyle=orthogonalEdgeStyle;rounded=0;orthogonalLoop=1;jettySize=auto;html=1;entryX=0.5;entryY=0;entryDx=0;entryDy=0;fillColor=#d5e8d4;strokeColor=#82b366;" parent="1" source="IS7OfrcVgxXRb15TEPke-45" target="IS7OfrcVgxXRb15TEPke-118" edge="1">
          <mxGeometry relative="1" as="geometry">
            <Array as="points">
              <mxPoint x="2240" y="1040" />
              <mxPoint x="2240" y="1060" />
              <mxPoint x="2380" y="1060" />
            </Array>
          </mxGeometry>
        </mxCell>
        <mxCell id="IS7OfrcVgxXRb15TEPke-150" value="&amp;lt; recommended medium term solution &amp;gt;" style="edgeLabel;html=1;align=center;verticalAlign=middle;resizable=0;points=[];" parent="IS7OfrcVgxXRb15TEPke-120" vertex="1" connectable="0">
          <mxGeometry x="-0.0039" y="4" relative="1" as="geometry">
            <mxPoint x="163" y="4" as="offset" />
          </mxGeometry>
        </mxCell>
        <mxCell id="IS7OfrcVgxXRb15TEPke-134" style="edgeStyle=orthogonalEdgeStyle;rounded=0;orthogonalLoop=1;jettySize=auto;html=1;entryX=1;entryY=0.5;entryDx=0;entryDy=0;exitX=0.005;exitY=0.329;exitDx=0;exitDy=0;fillColor=#d5e8d4;strokeColor=#82b366;dashed=1;strokeWidth=2;exitPerimeter=0;" parent="1" source="IS7OfrcVgxXRb15TEPke-131" target="IS7OfrcVgxXRb15TEPke-9" edge="1">
          <mxGeometry relative="1" as="geometry">
            <Array as="points">
              <mxPoint x="4120" y="1027" />
              <mxPoint x="4120" y="40" />
              <mxPoint x="1130" y="40" />
              <mxPoint x="1130" y="535" />
            </Array>
          </mxGeometry>
        </mxCell>
        <mxCell id="IS7OfrcVgxXRb15TEPke-131" value="«IStorage»&lt;br&gt;&lt;b&gt;PsqlStorage&lt;/b&gt;" style="html=1;dropTarget=0;whiteSpace=wrap;fillColor=#60a917;strokeColor=#2D7600;fontColor=#ffffff;" parent="1" vertex="1">
          <mxGeometry x="4040" y="992" width="160" height="60" as="geometry" />
        </mxCell>
        <mxCell id="IS7OfrcVgxXRb15TEPke-132" value="" style="shape=module;jettyWidth=8;jettyHeight=4;" parent="IS7OfrcVgxXRb15TEPke-131" vertex="1">
          <mxGeometry x="1" width="20" height="20" relative="1" as="geometry">
            <mxPoint x="-27" y="7" as="offset" />
          </mxGeometry>
        </mxCell>
        <mxCell id="IS7OfrcVgxXRb15TEPke-137" value="The bucket processor is expected to read from the moderation database delta collection (alias DLB - dead letter bucket). It should simply fetch all features being in the review-state &lt;b&gt;ENDORSED&lt;/b&gt;.&lt;br&gt;&lt;br&gt;The change-set-publisher should write all features where the integration has failed with the review-state &lt;b&gt;FAILED&lt;/b&gt; back into the delta collection (DLB). Additionally (in the same transaction) it should write all violations into the violation collection. It is expected as well, that all features that where successfully integrated are removed from delta collection (DLB).&lt;br&gt;&lt;br&gt;Conflicts can be handled by the provided Naksha library." style="html=1;shadow=0;dashed=0;shape=mxgraph.bootstrap.rrect;rSize=5;strokeColor=#999999;strokeWidth=1;fillColor=#FFFFFF;fontColor=#6C767D;whiteSpace=wrap;align=left;verticalAlign=middle;spacingLeft=10;fontSize=14;spacing=10;" parent="1" vertex="1">
          <mxGeometry x="3930" y="1420" width="620" height="190" as="geometry" />
        </mxCell>
        <mxCell id="IS7OfrcVgxXRb15TEPke-138" value="DCU can use a template provided by Naksha and implement a handler that performs the database access. Deployment is controlled by DUC, changed whenever wanted.&lt;br&gt;This method has the disadvantage, that Naksha will not be able to know that this is a storage, so no subscriptions are available for the consistent store." style="html=1;shadow=0;dashed=0;shape=mxgraph.bootstrap.rrect;rSize=5;strokeColor=#999999;strokeWidth=1;fillColor=#FFFFFF;fontColor=#6C767D;whiteSpace=wrap;align=left;verticalAlign=middle;spacingLeft=10;fontSize=14;spacing=10;" parent="1" vertex="1">
          <mxGeometry x="2380" y="820" width="349" height="130" as="geometry" />
        </mxCell>
        <mxCell id="IS7OfrcVgxXRb15TEPke-143" style="edgeStyle=orthogonalEdgeStyle;rounded=0;orthogonalLoop=1;jettySize=auto;html=1;entryX=0;entryY=0.5;entryDx=0;entryDy=0;" parent="1" source="IS7OfrcVgxXRb15TEPke-139" target="IS7OfrcVgxXRb15TEPke-141" edge="1">
          <mxGeometry relative="1" as="geometry" />
        </mxCell>
        <mxCell id="IS7OfrcVgxXRb15TEPke-139" value="«Space»&lt;br&gt;&lt;b&gt;Topology-Violations&lt;/b&gt;" style="html=1;dropTarget=0;whiteSpace=wrap;fillColor=#d5e8d4;strokeColor=#82b366;" parent="1" vertex="1">
          <mxGeometry x="1270" y="640" width="205" height="60" as="geometry" />
        </mxCell>
        <mxCell id="IS7OfrcVgxXRb15TEPke-140" value="" style="shape=module;jettyWidth=8;jettyHeight=4;" parent="IS7OfrcVgxXRb15TEPke-139" vertex="1">
          <mxGeometry x="1" width="20" height="20" relative="1" as="geometry">
            <mxPoint x="-27" y="7" as="offset" />
          </mxGeometry>
        </mxCell>
        <mxCell id="IS7OfrcVgxXRb15TEPke-144" style="edgeStyle=orthogonalEdgeStyle;rounded=0;orthogonalLoop=1;jettySize=auto;html=1;entryX=0.5;entryY=1;entryDx=0;entryDy=0;" parent="1" source="IS7OfrcVgxXRb15TEPke-141" target="IS7OfrcVgxXRb15TEPke-51" edge="1">
          <mxGeometry relative="1" as="geometry" />
        </mxCell>
        <mxCell id="IS7OfrcVgxXRb15TEPke-141" value="«IEventHandler»&lt;br&gt;&lt;b&gt;DefaultStorageHandler&lt;/b&gt;" style="html=1;dropTarget=0;whiteSpace=wrap;fillColor=#d5e8d4;strokeColor=#82b366;" parent="1" vertex="1">
          <mxGeometry x="1590" y="640" width="160" height="60" as="geometry" />
        </mxCell>
        <mxCell id="IS7OfrcVgxXRb15TEPke-142" value="" style="shape=module;jettyWidth=8;jettyHeight=4;" parent="IS7OfrcVgxXRb15TEPke-141" vertex="1">
          <mxGeometry x="1" width="20" height="20" relative="1" as="geometry">
            <mxPoint x="-27" y="7" as="offset" />
          </mxGeometry>
        </mxCell>
        <mxCell id="IS7OfrcVgxXRb15TEPke-152" value="Event Pipeline" style="shape=umlFrame;whiteSpace=wrap;html=1;pointerEvents=0;width=70;height=40;fillColor=#d5e8d4;strokeColor=#82b366;dashed=1;strokeWidth=3;" parent="1" vertex="1">
          <mxGeometry x="2310" y="240" width="1540" height="530" as="geometry" />
        </mxCell>
        <mxCell id="IS7OfrcVgxXRb15TEPke-154" style="edgeStyle=orthogonalEdgeStyle;rounded=0;orthogonalLoop=1;jettySize=auto;html=1;" parent="1" source="IS7OfrcVgxXRb15TEPke-153" edge="1">
          <mxGeometry relative="1" as="geometry">
            <mxPoint x="1510" y="670" as="targetPoint" />
          </mxGeometry>
        </mxCell>
        <mxCell id="IS7OfrcVgxXRb15TEPke-158" style="edgeStyle=orthogonalEdgeStyle;rounded=0;orthogonalLoop=1;jettySize=auto;html=1;entryX=-0.002;entryY=0.06;entryDx=0;entryDy=0;entryPerimeter=0;" parent="1" source="IS7OfrcVgxXRb15TEPke-153" target="IS7OfrcVgxXRb15TEPke-152" edge="1">
          <mxGeometry relative="1" as="geometry" />
        </mxCell>
        <mxCell id="IS7OfrcVgxXRb15TEPke-153" value="Event Pipeline Details" style="ellipse;whiteSpace=wrap;html=1;" parent="1" vertex="1">
          <mxGeometry x="1790" y="357" width="140" height="70" as="geometry" />
        </mxCell>
        <mxCell id="IS7OfrcVgxXRb15TEPke-219" style="edgeStyle=orthogonalEdgeStyle;rounded=0;orthogonalLoop=1;jettySize=auto;html=1;" parent="1" source="IS7OfrcVgxXRb15TEPke-164" target="IS7OfrcVgxXRb15TEPke-181" edge="1">
          <mxGeometry relative="1" as="geometry">
            <Array as="points">
              <mxPoint x="3570" y="370" />
              <mxPoint x="3570" y="370" />
            </Array>
          </mxGeometry>
        </mxCell>
        <mxCell id="IS7OfrcVgxXRb15TEPke-223" style="edgeStyle=orthogonalEdgeStyle;rounded=0;orthogonalLoop=1;jettySize=auto;html=1;entryX=0.25;entryY=0;entryDx=0;entryDy=0;" parent="1" source="IS7OfrcVgxXRb15TEPke-164" target="IS7OfrcVgxXRb15TEPke-185" edge="1">
          <mxGeometry relative="1" as="geometry">
            <Array as="points">
              <mxPoint x="3310" y="530" />
              <mxPoint x="3310" y="530" />
            </Array>
          </mxGeometry>
        </mxCell>
        <mxCell id="IS7OfrcVgxXRb15TEPke-225" value="IStorage" style="edgeLabel;html=1;align=center;verticalAlign=middle;resizable=0;points=[];" parent="IS7OfrcVgxXRb15TEPke-223" vertex="1" connectable="0">
          <mxGeometry x="-0.2097" y="-1" relative="1" as="geometry">
            <mxPoint as="offset" />
          </mxGeometry>
        </mxCell>
        <mxCell id="IS7OfrcVgxXRb15TEPke-211" style="edgeStyle=orthogonalEdgeStyle;rounded=0;orthogonalLoop=1;jettySize=auto;html=1;dashed=1;" parent="1" source="IS7OfrcVgxXRb15TEPke-174" target="IS7OfrcVgxXRb15TEPke-197" edge="1">
          <mxGeometry relative="1" as="geometry">
            <Array as="points">
              <mxPoint x="2610" y="580" />
              <mxPoint x="2610" y="382" />
            </Array>
          </mxGeometry>
        </mxCell>
        <mxCell id="IS7OfrcVgxXRb15TEPke-174" value="&lt;b&gt;Space&lt;/b&gt;" style="swimlane;fontStyle=0;childLayout=stackLayout;horizontal=1;startSize=26;fillColor=#d5e8d4;horizontalStack=0;resizeParent=1;resizeParentMax=0;resizeLast=0;collapsible=1;marginBottom=0;whiteSpace=wrap;html=1;strokeColor=#82b366;" parent="1" vertex="1">
          <mxGeometry x="2380" y="569.5" width="180" height="130" as="geometry" />
        </mxCell>
        <mxCell id="IS7OfrcVgxXRb15TEPke-175" value="+ id: String" style="text;strokeColor=none;fillColor=none;align=left;verticalAlign=top;spacingLeft=4;spacingRight=4;overflow=hidden;rotatable=0;points=[[0,0.5],[1,0.5]];portConstraint=eastwest;whiteSpace=wrap;html=1;" parent="IS7OfrcVgxXRb15TEPke-174" vertex="1">
          <mxGeometry y="26" width="180" height="26" as="geometry" />
        </mxCell>
        <mxCell id="IS7OfrcVgxXRb15TEPke-176" value="+ eventHandler: List&amp;lt;String&amp;gt;" style="text;strokeColor=none;fillColor=none;align=left;verticalAlign=top;spacingLeft=4;spacingRight=4;overflow=hidden;rotatable=0;points=[[0,0.5],[1,0.5]];portConstraint=eastwest;whiteSpace=wrap;html=1;" parent="IS7OfrcVgxXRb15TEPke-174" vertex="1">
          <mxGeometry y="52" width="180" height="26" as="geometry" />
        </mxCell>
        <mxCell id="IS7OfrcVgxXRb15TEPke-212" value="+ storageId: String" style="text;strokeColor=none;fillColor=none;align=left;verticalAlign=top;spacingLeft=4;spacingRight=4;overflow=hidden;rotatable=0;points=[[0,0.5],[1,0.5]];portConstraint=eastwest;whiteSpace=wrap;html=1;" parent="IS7OfrcVgxXRb15TEPke-174" vertex="1">
          <mxGeometry y="78" width="180" height="26" as="geometry" />
        </mxCell>
        <mxCell id="IS7OfrcVgxXRb15TEPke-213" value="+ collectionids: List&amp;lt;String&amp;gt;" style="text;strokeColor=none;fillColor=none;align=left;verticalAlign=top;spacingLeft=4;spacingRight=4;overflow=hidden;rotatable=0;points=[[0,0.5],[1,0.5]];portConstraint=eastwest;whiteSpace=wrap;html=1;" parent="IS7OfrcVgxXRb15TEPke-174" vertex="1">
          <mxGeometry y="104" width="180" height="26" as="geometry" />
        </mxCell>
        <mxCell id="IS7OfrcVgxXRb15TEPke-202" style="edgeStyle=orthogonalEdgeStyle;rounded=0;orthogonalLoop=1;jettySize=auto;html=1;dashed=1;" parent="1" source="IS7OfrcVgxXRb15TEPke-177" target="IS7OfrcVgxXRb15TEPke-197" edge="1">
          <mxGeometry relative="1" as="geometry">
            <Array as="points">
              <mxPoint x="2620" y="370" />
              <mxPoint x="2620" y="370" />
            </Array>
          </mxGeometry>
        </mxCell>
        <mxCell id="IS7OfrcVgxXRb15TEPke-177" value="&lt;b&gt;GetFeaturesByIdEvent&lt;/b&gt;" style="swimlane;fontStyle=0;childLayout=stackLayout;horizontal=1;startSize=26;fillColor=#d5e8d4;horizontalStack=0;resizeParent=1;resizeParentMax=0;resizeLast=0;collapsible=1;marginBottom=0;whiteSpace=wrap;html=1;strokeColor=#82b366;" parent="1" vertex="1">
          <mxGeometry x="2380" y="319" width="180" height="156" as="geometry" />
        </mxCell>
        <mxCell id="IS7OfrcVgxXRb15TEPke-178" value="+ type: String" style="text;strokeColor=none;fillColor=none;align=left;verticalAlign=top;spacingLeft=4;spacingRight=4;overflow=hidden;rotatable=0;points=[[0,0.5],[1,0.5]];portConstraint=eastwest;whiteSpace=wrap;html=1;" parent="IS7OfrcVgxXRb15TEPke-177" vertex="1">
          <mxGeometry y="26" width="180" height="26" as="geometry" />
        </mxCell>
        <mxCell id="IS7OfrcVgxXRb15TEPke-196" value="&lt;b&gt;+ space: Space&lt;/b&gt;" style="text;strokeColor=none;fillColor=none;align=left;verticalAlign=top;spacingLeft=4;spacingRight=4;overflow=hidden;rotatable=0;points=[[0,0.5],[1,0.5]];portConstraint=eastwest;whiteSpace=wrap;html=1;" parent="IS7OfrcVgxXRb15TEPke-177" vertex="1">
          <mxGeometry y="52" width="180" height="26" as="geometry" />
        </mxCell>
        <mxCell id="IS7OfrcVgxXRb15TEPke-214" value="+ storageId: String" style="text;strokeColor=none;fillColor=none;align=left;verticalAlign=top;spacingLeft=4;spacingRight=4;overflow=hidden;rotatable=0;points=[[0,0.5],[1,0.5]];portConstraint=eastwest;whiteSpace=wrap;html=1;" parent="IS7OfrcVgxXRb15TEPke-177" vertex="1">
          <mxGeometry y="78" width="180" height="26" as="geometry" />
        </mxCell>
        <mxCell id="QiJwT_M8jZvrQRE63DZS-7" value="+ collectionIds: List&amp;lt;String&amp;gt;" style="text;strokeColor=none;fillColor=none;align=left;verticalAlign=top;spacingLeft=4;spacingRight=4;overflow=hidden;rotatable=0;points=[[0,0.5],[1,0.5]];portConstraint=eastwest;whiteSpace=wrap;html=1;" vertex="1" parent="IS7OfrcVgxXRb15TEPke-177">
          <mxGeometry y="104" width="180" height="26" as="geometry" />
        </mxCell>
        <mxCell id="QiJwT_M8jZvrQRE63DZS-6" value="+ ..." style="text;strokeColor=none;fillColor=none;align=left;verticalAlign=top;spacingLeft=4;spacingRight=4;overflow=hidden;rotatable=0;points=[[0,0.5],[1,0.5]];portConstraint=eastwest;whiteSpace=wrap;html=1;" vertex="1" parent="IS7OfrcVgxXRb15TEPke-177">
          <mxGeometry y="130" width="180" height="26" as="geometry" />
        </mxCell>
        <mxCell id="IS7OfrcVgxXRb15TEPke-220" style="edgeStyle=orthogonalEdgeStyle;rounded=0;orthogonalLoop=1;jettySize=auto;html=1;" parent="1" source="IS7OfrcVgxXRb15TEPke-181" target="IS7OfrcVgxXRb15TEPke-189" edge="1">
          <mxGeometry relative="1" as="geometry" />
        </mxCell>
        <mxCell id="IS7OfrcVgxXRb15TEPke-221" style="edgeStyle=orthogonalEdgeStyle;rounded=0;orthogonalLoop=1;jettySize=auto;html=1;" parent="1" source="IS7OfrcVgxXRb15TEPke-181" target="IS7OfrcVgxXRb15TEPke-185" edge="1">
          <mxGeometry relative="1" as="geometry">
            <Array as="points">
              <mxPoint x="3640" y="560" />
              <mxPoint x="3640" y="560" />
            </Array>
          </mxGeometry>
        </mxCell>
        <mxCell id="IS7OfrcVgxXRb15TEPke-181" value="&lt;i style=&quot;border-color: var(--border-color);&quot;&gt;&lt;font style=&quot;font-size: 10px;&quot;&gt;&amp;lt;&amp;lt;&amp;lt;&amp;nbsp;&lt;/font&gt;&lt;font style=&quot;font-size: 12px;&quot;&gt;INaksha&amp;nbsp;&lt;/font&gt;&lt;font style=&quot;font-size: 10px;&quot;&gt;&amp;gt;&amp;gt;&amp;gt;&lt;/font&gt;&lt;/i&gt;&lt;br style=&quot;border-color: var(--border-color);&quot;&gt;&lt;b style=&quot;border-color: var(--border-color);&quot;&gt;NakshaService&lt;/b&gt;" style="swimlane;fontStyle=0;childLayout=stackLayout;horizontal=1;startSize=37;fillColor=#d5e8d4;horizontalStack=0;resizeParent=1;resizeParentMax=0;resizeLast=0;collapsible=1;marginBottom=0;whiteSpace=wrap;html=1;strokeColor=#82b366;" parent="1" vertex="1">
          <mxGeometry x="3590" y="351" width="250" height="63" as="geometry" />
        </mxCell>
        <mxCell id="IS7OfrcVgxXRb15TEPke-183" value="+ getStorage(storageId : String) : IStorage" style="text;strokeColor=none;fillColor=none;align=left;verticalAlign=top;spacingLeft=4;spacingRight=4;overflow=hidden;rotatable=0;points=[[0,0.5],[1,0.5]];portConstraint=eastwest;whiteSpace=wrap;html=1;" parent="IS7OfrcVgxXRb15TEPke-181" vertex="1">
          <mxGeometry y="37" width="250" height="26" as="geometry" />
        </mxCell>
        <mxCell id="IS7OfrcVgxXRb15TEPke-185" value="&lt;i style=&quot;border-color: var(--border-color);&quot;&gt;&lt;font style=&quot;font-size: 10px;&quot;&gt;&amp;lt;&amp;lt;&amp;lt;&amp;nbsp;&lt;/font&gt;&lt;font style=&quot;font-size: 12px;&quot;&gt;IStorage&amp;nbsp;&lt;/font&gt;&lt;font style=&quot;font-size: 10px;&quot;&gt;&amp;gt;&amp;gt;&amp;gt;&lt;/font&gt;&lt;/i&gt;&lt;br style=&quot;border-color: var(--border-color);&quot;&gt;&lt;b style=&quot;border-color: var(--border-color);&quot;&gt;PsqlStorage&lt;/b&gt;" style="swimlane;fontStyle=0;childLayout=stackLayout;horizontal=1;startSize=37;fillColor=#60a917;horizontalStack=0;resizeParent=1;resizeParentMax=0;resizeLast=0;collapsible=1;marginBottom=0;whiteSpace=wrap;html=1;strokeColor=#2D7600;fontColor=#ffffff;" parent="1" vertex="1">
          <mxGeometry x="3230" y="590" width="320" height="89" as="geometry" />
        </mxCell>
        <mxCell id="IS7OfrcVgxXRb15TEPke-186" value="+ new(naksha : INaksha, eventHandler: EventHandler)" style="text;strokeColor=none;fillColor=none;align=left;verticalAlign=top;spacingLeft=4;spacingRight=4;overflow=hidden;rotatable=0;points=[[0,0.5],[1,0.5]];portConstraint=eastwest;whiteSpace=wrap;html=1;" parent="IS7OfrcVgxXRb15TEPke-185" vertex="1">
          <mxGeometry y="37" width="320" height="26" as="geometry" />
        </mxCell>
        <mxCell id="IS7OfrcVgxXRb15TEPke-187" value="+ newContext(): IStorageContext" style="text;strokeColor=none;fillColor=none;align=left;verticalAlign=top;spacingLeft=4;spacingRight=4;overflow=hidden;rotatable=0;points=[[0,0.5],[1,0.5]];portConstraint=eastwest;whiteSpace=wrap;html=1;" parent="IS7OfrcVgxXRb15TEPke-185" vertex="1">
          <mxGeometry y="63" width="320" height="26" as="geometry" />
        </mxCell>
        <mxCell id="IS7OfrcVgxXRb15TEPke-189" value="&lt;b&gt;Storage&lt;/b&gt;" style="swimlane;fontStyle=0;childLayout=stackLayout;horizontal=1;startSize=26;fillColor=#d5e8d4;horizontalStack=0;resizeParent=1;resizeParentMax=0;resizeLast=0;collapsible=1;marginBottom=0;whiteSpace=wrap;html=1;strokeColor=#82b366;" parent="1" vertex="1">
          <mxGeometry x="3670" y="482" width="170" height="104" as="geometry" />
        </mxCell>
        <mxCell id="IS7OfrcVgxXRb15TEPke-190" value="+ id: String" style="text;strokeColor=none;fillColor=none;align=left;verticalAlign=top;spacingLeft=4;spacingRight=4;overflow=hidden;rotatable=0;points=[[0,0.5],[1,0.5]];portConstraint=eastwest;whiteSpace=wrap;html=1;" parent="IS7OfrcVgxXRb15TEPke-189" vertex="1">
          <mxGeometry y="26" width="170" height="26" as="geometry" />
        </mxCell>
        <mxCell id="IS7OfrcVgxXRb15TEPke-191" value="+ className: String" style="text;strokeColor=none;fillColor=none;align=left;verticalAlign=top;spacingLeft=4;spacingRight=4;overflow=hidden;rotatable=0;points=[[0,0.5],[1,0.5]];portConstraint=eastwest;whiteSpace=wrap;html=1;" parent="IS7OfrcVgxXRb15TEPke-189" vertex="1">
          <mxGeometry y="52" width="170" height="26" as="geometry" />
        </mxCell>
        <mxCell id="IS7OfrcVgxXRb15TEPke-224" value="+ properties: JsonObject" style="text;strokeColor=none;fillColor=none;align=left;verticalAlign=top;spacingLeft=4;spacingRight=4;overflow=hidden;rotatable=0;points=[[0,0.5],[1,0.5]];portConstraint=eastwest;whiteSpace=wrap;html=1;" parent="IS7OfrcVgxXRb15TEPke-189" vertex="1">
          <mxGeometry y="78" width="170" height="26" as="geometry" />
        </mxCell>
        <mxCell id="IS7OfrcVgxXRb15TEPke-205" style="edgeStyle=orthogonalEdgeStyle;rounded=0;orthogonalLoop=1;jettySize=auto;html=1;" parent="1" source="IS7OfrcVgxXRb15TEPke-197" target="IS7OfrcVgxXRb15TEPke-164" edge="1">
          <mxGeometry relative="1" as="geometry" />
        </mxCell>
        <mxCell id="IS7OfrcVgxXRb15TEPke-201" value="When a REST request is incoming, Naksha will create an event from it. For example the request&amp;nbsp;&lt;b&gt;GET /spaces/foo/features?id=a,b&lt;/b&gt; will be translated into&amp;nbsp;a &lt;b&gt;GetFeaturesByIdEvent&lt;/b&gt;.&lt;br&gt;&lt;br&gt;Then a new event-pipeline is created and the accessed &lt;b&gt;space&lt;/b&gt; is read.&amp;nbsp;The &lt;b&gt;space&lt;/b&gt;&amp;nbsp;holds a list of event-handlers that should be part of the event-pipeline (in order).&lt;br&gt;&lt;br&gt;Naksha will read all EventHandlers and use the &lt;b&gt;className&lt;/b&gt; to create instances, providing the Naksha reference and the EventHandler object&amp;nbsp;to the constructor of the handler implementation, before adding it into the event-pipeline.&lt;br&gt;&lt;br&gt;Eventually the event is send through the event-pipeline and the generated response is returned." style="html=1;shadow=0;dashed=0;shape=mxgraph.bootstrap.rrect;rSize=5;strokeColor=#999999;strokeWidth=1;fillColor=#FFFFFF;fontColor=#6C767D;whiteSpace=wrap;align=left;verticalAlign=middle;spacingLeft=10;fontSize=14;spacing=10;" parent="1" vertex="1">
          <mxGeometry x="2640" y="440" width="500" height="296.5" as="geometry" />
        </mxCell>
        <mxCell id="IS7OfrcVgxXRb15TEPke-216" style="edgeStyle=orthogonalEdgeStyle;rounded=0;orthogonalLoop=1;jettySize=auto;html=1;dashed=1;" parent="1" source="IS7OfrcVgxXRb15TEPke-196" target="IS7OfrcVgxXRb15TEPke-174" edge="1">
          <mxGeometry relative="1" as="geometry">
            <Array as="points">
              <mxPoint x="2360" y="384" />
              <mxPoint x="2360" y="580" />
            </Array>
          </mxGeometry>
        </mxCell>
        <mxCell id="IS7OfrcVgxXRb15TEPke-217" value="The &lt;b&gt;default storage handler&lt;/b&gt; reads the &lt;b&gt;space&lt;/b&gt; from the &lt;b&gt;event&lt;/b&gt;. Then it asks &lt;b&gt;Naksha&lt;/b&gt; for the &lt;b&gt;storage&lt;/b&gt; implementation. Naksha does return an object implementing the &lt;b&gt;IStorage&lt;/b&gt; interface. It does so, by reading the user defined &lt;b&gt;storage&lt;/b&gt; configuration, in which it find the className, while the properties are arbitrary configuration details defined by the implementation.&lt;br&gt;&lt;br&gt;For example, the default &lt;b&gt;PsqlStorage&lt;/b&gt; implementation will require a &lt;b&gt;url&lt;/b&gt; property storing the JDBC URL of the database to connect to, and some other properties for details like statement- and lock-timeout." style="html=1;shadow=0;dashed=0;shape=mxgraph.bootstrap.rrect;rSize=5;strokeColor=#999999;strokeWidth=1;fillColor=#FFFFFF;fontColor=#6C767D;whiteSpace=wrap;align=left;verticalAlign=middle;spacingLeft=10;fontSize=14;spacing=10;" parent="1" vertex="1">
          <mxGeometry x="3190" y="690" width="660" height="170" as="geometry" />
        </mxCell>
        <mxCell id="IS7OfrcVgxXRb15TEPke-222" value="IStorage" style="html=1;verticalAlign=bottom;endArrow=open;dashed=1;endSize=8;edgeStyle=elbowEdgeStyle;elbow=vertical;curved=0;rounded=0;entryX=1.004;entryY=0.929;entryDx=0;entryDy=0;entryPerimeter=0;" parent="1" target="IS7OfrcVgxXRb15TEPke-165" edge="1">
          <mxGeometry relative="1" as="geometry">
            <mxPoint x="3590" y="400.33000000000004" as="sourcePoint" />
            <mxPoint x="3510" y="400.33000000000004" as="targetPoint" />
          </mxGeometry>
        </mxCell>
        <mxCell id="QiJwT_M8jZvrQRE63DZS-3" value="Naksha will attach the effected space to the event." style="html=1;shadow=0;dashed=0;shape=mxgraph.bootstrap.rrect;rSize=5;strokeColor=#999999;strokeWidth=1;fillColor=#FFFFFF;fontColor=#6C767D;whiteSpace=wrap;align=left;verticalAlign=middle;spacingLeft=10;fontSize=14;spacing=10;" vertex="1" parent="1">
          <mxGeometry x="2140" y="290" width="230" height="85" as="geometry" />
        </mxCell>
        <mxCell id="QiJwT_M8jZvrQRE63DZS-8" value="" style="group" vertex="1" connectable="0" parent="1">
          <mxGeometry x="2680" y="200" width="290" height="227" as="geometry" />
        </mxCell>
        <mxCell id="IS7OfrcVgxXRb15TEPke-159" value="&lt;b&gt;EventHandler&lt;/b&gt;" style="swimlane;fontStyle=0;childLayout=stackLayout;horizontal=1;startSize=26;fillColor=#d5e8d4;horizontalStack=0;resizeParent=1;resizeParentMax=0;resizeLast=0;collapsible=1;marginBottom=0;whiteSpace=wrap;html=1;strokeColor=#82b366;" parent="QiJwT_M8jZvrQRE63DZS-8" vertex="1">
          <mxGeometry y="60" width="290" height="78" as="geometry" />
        </mxCell>
        <mxCell id="IS7OfrcVgxXRb15TEPke-161" value="+ id: String" style="text;strokeColor=none;fillColor=none;align=left;verticalAlign=top;spacingLeft=4;spacingRight=4;overflow=hidden;rotatable=0;points=[[0,0.5],[1,0.5]];portConstraint=eastwest;whiteSpace=wrap;html=1;" parent="IS7OfrcVgxXRb15TEPke-159" vertex="1">
          <mxGeometry y="26" width="290" height="26" as="geometry" />
        </mxCell>
        <mxCell id="IS7OfrcVgxXRb15TEPke-162" value="+ className: String" style="text;strokeColor=none;fillColor=none;align=left;verticalAlign=top;spacingLeft=4;spacingRight=4;overflow=hidden;rotatable=0;points=[[0,0.5],[1,0.5]];portConstraint=eastwest;whiteSpace=wrap;html=1;" parent="IS7OfrcVgxXRb15TEPke-159" vertex="1">
          <mxGeometry y="52" width="290" height="26" as="geometry" />
        </mxCell>
        <mxCell id="IS7OfrcVgxXRb15TEPke-197" value="&lt;i style=&quot;border-color: var(--border-color);&quot;&gt;&lt;font style=&quot;font-size: 10px;&quot;&gt;&amp;lt;&amp;lt;&amp;lt;&amp;nbsp;&lt;/font&gt;&lt;font style=&quot;font-size: 12px;&quot;&gt;IEventHandler&amp;nbsp;&lt;/font&gt;&lt;font style=&quot;font-size: 10px;&quot;&gt;&amp;gt;&amp;gt;&amp;gt;&lt;br&gt;&lt;i style=&quot;border-color: var(--border-color); font-size: 12px;&quot;&gt;&lt;font style=&quot;border-color: var(--border-color); font-size: 10px;&quot;&gt;&lt;b style=&quot;border-color: var(--border-color); font-size: 12px; font-style: normal;&quot;&gt;JsonSchemaValidator&lt;/b&gt;&lt;/font&gt;&lt;/i&gt;&lt;br&gt;&lt;/font&gt;&lt;/i&gt;" style="swimlane;fontStyle=0;childLayout=stackLayout;horizontal=1;startSize=37;fillColor=#d5e8d4;horizontalStack=0;resizeParent=1;resizeParentMax=0;resizeLast=0;collapsible=1;marginBottom=0;whiteSpace=wrap;html=1;strokeColor=#82b366;" parent="QiJwT_M8jZvrQRE63DZS-8" vertex="1">
          <mxGeometry y="138" width="290" height="89" as="geometry" />
        </mxCell>
        <mxCell id="IS7OfrcVgxXRb15TEPke-198" value="+ new(naksha : INaksha, storage: Storage)" style="text;strokeColor=none;fillColor=none;align=left;verticalAlign=top;spacingLeft=4;spacingRight=4;overflow=hidden;rotatable=0;points=[[0,0.5],[1,0.5]];portConstraint=eastwest;whiteSpace=wrap;html=1;" parent="IS7OfrcVgxXRb15TEPke-197" vertex="1">
          <mxGeometry y="37" width="290" height="26" as="geometry" />
        </mxCell>
        <mxCell id="IS7OfrcVgxXRb15TEPke-199" value="+ processEvent(ctx : IEventContext) : XyzResponse" style="text;strokeColor=none;fillColor=none;align=left;verticalAlign=top;spacingLeft=4;spacingRight=4;overflow=hidden;rotatable=0;points=[[0,0.5],[1,0.5]];portConstraint=eastwest;whiteSpace=wrap;html=1;" parent="IS7OfrcVgxXRb15TEPke-197" vertex="1">
          <mxGeometry y="63" width="290" height="26" as="geometry" />
        </mxCell>
        <mxCell id="QiJwT_M8jZvrQRE63DZS-4" value="Just example, what the owner of a space could possibly do, in this case, first added a JSON schema validator to the pipeline." style="html=1;shadow=0;dashed=0;shape=mxgraph.bootstrap.rrect;rSize=5;strokeColor=#999999;strokeWidth=1;fillColor=#FFFFFF;fontColor=#6C767D;whiteSpace=wrap;align=left;verticalAlign=middle;spacingLeft=10;fontSize=14;spacing=10;" vertex="1" parent="QiJwT_M8jZvrQRE63DZS-8">
          <mxGeometry width="290" height="60" as="geometry" />
        </mxCell>
        <mxCell id="QiJwT_M8jZvrQRE63DZS-9" value="" style="group" vertex="1" connectable="0" parent="1">
          <mxGeometry x="3200" y="100" width="460" height="327" as="geometry" />
        </mxCell>
        <mxCell id="IS7OfrcVgxXRb15TEPke-164" value="&lt;i style=&quot;border-color: var(--border-color);&quot;&gt;&lt;font style=&quot;font-size: 10px;&quot;&gt;&amp;lt;&amp;lt;&amp;lt;&amp;nbsp;&lt;/font&gt;&lt;font style=&quot;font-size: 12px;&quot;&gt;IEventHandler&amp;nbsp;&lt;/font&gt;&lt;font style=&quot;font-size: 10px;&quot;&gt;&amp;gt;&amp;gt;&amp;gt;&lt;br&gt;&lt;i style=&quot;border-color: var(--border-color); font-size: 12px;&quot;&gt;&lt;font style=&quot;border-color: var(--border-color); font-size: 10px;&quot;&gt;&lt;b style=&quot;border-color: var(--border-color); font-size: 12px; font-style: normal;&quot;&gt;DefaultStorageHandler&lt;/b&gt;&lt;/font&gt;&lt;/i&gt;&lt;br&gt;&lt;/font&gt;&lt;/i&gt;" style="swimlane;fontStyle=0;childLayout=stackLayout;horizontal=1;startSize=37;fillColor=#d5e8d4;horizontalStack=0;resizeParent=1;resizeParentMax=0;resizeLast=0;collapsible=1;marginBottom=0;whiteSpace=wrap;html=1;strokeColor=#82b366;" parent="QiJwT_M8jZvrQRE63DZS-9" vertex="1">
          <mxGeometry y="238" width="290" height="89" as="geometry" />
        </mxCell>
        <mxCell id="IS7OfrcVgxXRb15TEPke-165" value="+ new(naksha : INaksha, storage: Storage)" style="text;strokeColor=none;fillColor=none;align=left;verticalAlign=top;spacingLeft=4;spacingRight=4;overflow=hidden;rotatable=0;points=[[0,0.5],[1,0.5]];portConstraint=eastwest;whiteSpace=wrap;html=1;" parent="IS7OfrcVgxXRb15TEPke-164" vertex="1">
          <mxGeometry y="37" width="290" height="26" as="geometry" />
        </mxCell>
        <mxCell id="IS7OfrcVgxXRb15TEPke-200" value="+ processEvent(ctx : IEventContext) : XyzResponse" style="text;strokeColor=none;fillColor=none;align=left;verticalAlign=top;spacingLeft=4;spacingRight=4;overflow=hidden;rotatable=0;points=[[0,0.5],[1,0.5]];portConstraint=eastwest;whiteSpace=wrap;html=1;" parent="IS7OfrcVgxXRb15TEPke-164" vertex="1">
          <mxGeometry y="63" width="290" height="26" as="geometry" />
        </mxCell>
        <mxCell id="IS7OfrcVgxXRb15TEPke-207" value="&lt;b&gt;EventHandler&lt;/b&gt;" style="swimlane;fontStyle=0;childLayout=stackLayout;horizontal=1;startSize=26;fillColor=#d5e8d4;horizontalStack=0;resizeParent=1;resizeParentMax=0;resizeLast=0;collapsible=1;marginBottom=0;whiteSpace=wrap;html=1;strokeColor=#82b366;" parent="QiJwT_M8jZvrQRE63DZS-9" vertex="1">
          <mxGeometry y="160" width="290" height="78" as="geometry" />
        </mxCell>
        <mxCell id="IS7OfrcVgxXRb15TEPke-208" value="+ id: String" style="text;strokeColor=none;fillColor=none;align=left;verticalAlign=top;spacingLeft=4;spacingRight=4;overflow=hidden;rotatable=0;points=[[0,0.5],[1,0.5]];portConstraint=eastwest;whiteSpace=wrap;html=1;" parent="IS7OfrcVgxXRb15TEPke-207" vertex="1">
          <mxGeometry y="26" width="290" height="26" as="geometry" />
        </mxCell>
        <mxCell id="IS7OfrcVgxXRb15TEPke-209" value="+ className: String" style="text;strokeColor=none;fillColor=none;align=left;verticalAlign=top;spacingLeft=4;spacingRight=4;overflow=hidden;rotatable=0;points=[[0,0.5],[1,0.5]];portConstraint=eastwest;whiteSpace=wrap;html=1;" parent="IS7OfrcVgxXRb15TEPke-207" vertex="1">
          <mxGeometry y="52" width="290" height="26" as="geometry" />
        </mxCell>
        <mxCell id="QiJwT_M8jZvrQRE63DZS-5" value="This is the default storage handler provided by Naksha out of the box. It reads the &lt;b&gt;storageId&lt;/b&gt; from the &lt;b&gt;space&lt;/b&gt; and will apply read/write actions to the first collection of that storage.&lt;br&gt;For this it will ask the Naksha host to resolve the &lt;b&gt;storageId&lt;/b&gt; into a concrete implementation providing the &lt;b&gt;&lt;i&gt;IStorage&lt;/i&gt;&lt;/b&gt; interface, which it will use the fullfil the event.&lt;br&gt;This handler consumes the event, if it handles it and forward unhandled events further down the pipeline. In this example the final handler would then return a UnsupportedEventResponse." style="html=1;shadow=0;dashed=0;shape=mxgraph.bootstrap.rrect;rSize=5;strokeColor=#999999;strokeWidth=1;fillColor=#FFFFFF;fontColor=#6C767D;whiteSpace=wrap;align=left;verticalAlign=middle;spacingLeft=10;fontSize=14;spacing=10;" vertex="1" parent="QiJwT_M8jZvrQRE63DZS-9">
          <mxGeometry width="460" height="160" as="geometry" />
        </mxCell>
        <mxCell id="QiJwT_M8jZvrQRE63DZS-10" value="" style="sketch=0;points=[[0,0,0],[0.25,0,0],[0.5,0,0],[0.75,0,0],[1,0,0],[0,1,0],[0.25,1,0],[0.5,1,0],[0.75,1,0],[1,1,0],[0,0.25,0],[0,0.5,0],[0,0.75,0],[1,0.25,0],[1,0.5,0],[1,0.75,0]];outlineConnect=0;fontColor=#232F3E;gradientColor=#FF4F8B;gradientDirection=north;fillColor=#BC1356;strokeColor=#ffffff;dashed=0;verticalLabelPosition=bottom;verticalAlign=top;align=center;html=1;fontSize=12;fontStyle=0;aspect=fixed;shape=mxgraph.aws4.resourceIcon;resIcon=mxgraph.aws4.sns;" vertex="1" parent="1">
          <mxGeometry x="940" y="1640" width="78" height="78" as="geometry" />
        </mxCell>
        <mxCell id="QiJwT_M8jZvrQRE63DZS-46" style="edgeStyle=orthogonalEdgeStyle;rounded=0;orthogonalLoop=1;jettySize=auto;html=1;" edge="1" parent="1" source="QiJwT_M8jZvrQRE63DZS-11" target="QiJwT_M8jZvrQRE63DZS-16">
          <mxGeometry relative="1" as="geometry" />
        </mxCell>
        <mxCell id="QiJwT_M8jZvrQRE63DZS-91" value="&amp;lt; TransactionEvent &amp;gt;" style="edgeLabel;html=1;align=center;verticalAlign=middle;resizable=0;points=[];" vertex="1" connectable="0" parent="QiJwT_M8jZvrQRE63DZS-46">
          <mxGeometry x="0.0007" y="2" relative="1" as="geometry">
            <mxPoint x="-8" y="2" as="offset" />
          </mxGeometry>
        </mxCell>
        <mxCell id="QiJwT_M8jZvrQRE63DZS-11" value="«Subscription»&lt;br&gt;&lt;b&gt;UTM-Topology-Subscription&lt;/b&gt;" style="html=1;dropTarget=0;whiteSpace=wrap;fillColor=#e1d5e7;strokeColor=#9673a6;" vertex="1" parent="1">
          <mxGeometry x="1565" y="1790" width="205" height="60" as="geometry" />
        </mxCell>
        <mxCell id="QiJwT_M8jZvrQRE63DZS-12" value="" style="shape=module;jettyWidth=8;jettyHeight=4;" vertex="1" parent="QiJwT_M8jZvrQRE63DZS-11">
          <mxGeometry x="1" width="20" height="20" relative="1" as="geometry">
            <mxPoint x="-27" y="7" as="offset" />
          </mxGeometry>
        </mxCell>
        <mxCell id="QiJwT_M8jZvrQRE63DZS-98" style="edgeStyle=orthogonalEdgeStyle;rounded=0;orthogonalLoop=1;jettySize=auto;html=1;entryX=0;entryY=0.5;entryDx=0;entryDy=0;" edge="1" parent="1" source="QiJwT_M8jZvrQRE63DZS-13" target="QiJwT_M8jZvrQRE63DZS-80">
          <mxGeometry relative="1" as="geometry" />
        </mxCell>
        <mxCell id="QiJwT_M8jZvrQRE63DZS-99" value="&amp;lt; TransactionEvent &amp;gt;" style="edgeLabel;html=1;align=center;verticalAlign=middle;resizable=0;points=[];" vertex="1" connectable="0" parent="QiJwT_M8jZvrQRE63DZS-98">
          <mxGeometry x="-0.1918" relative="1" as="geometry">
            <mxPoint x="19" as="offset" />
          </mxGeometry>
        </mxCell>
        <mxCell id="QiJwT_M8jZvrQRE63DZS-13" value="«Subscription»&lt;br&gt;&lt;b&gt;Validation / Endorse Subscription&lt;/b&gt;" style="html=1;dropTarget=0;whiteSpace=wrap;fillColor=#d5e8d4;strokeColor=#82b366;" vertex="1" parent="1">
          <mxGeometry x="1565" y="1920" width="205" height="60" as="geometry" />
        </mxCell>
        <mxCell id="QiJwT_M8jZvrQRE63DZS-14" value="" style="shape=module;jettyWidth=8;jettyHeight=4;" vertex="1" parent="QiJwT_M8jZvrQRE63DZS-13">
          <mxGeometry x="1" width="20" height="20" relative="1" as="geometry">
            <mxPoint x="-27" y="7" as="offset" />
          </mxGeometry>
        </mxCell>
        <mxCell id="QiJwT_M8jZvrQRE63DZS-47" style="edgeStyle=orthogonalEdgeStyle;rounded=0;orthogonalLoop=1;jettySize=auto;html=1;" edge="1" parent="1" source="QiJwT_M8jZvrQRE63DZS-16" target="QiJwT_M8jZvrQRE63DZS-18">
          <mxGeometry relative="1" as="geometry" />
        </mxCell>
        <mxCell id="QiJwT_M8jZvrQRE63DZS-92" value="&amp;lt; FullTransactionEvent &amp;gt;" style="edgeLabel;html=1;align=center;verticalAlign=middle;resizable=0;points=[];" vertex="1" connectable="0" parent="QiJwT_M8jZvrQRE63DZS-47">
          <mxGeometry x="0.1224" y="2" relative="1" as="geometry">
            <mxPoint x="-6" y="2" as="offset" />
          </mxGeometry>
        </mxCell>
        <mxCell id="QiJwT_M8jZvrQRE63DZS-147" style="edgeStyle=orthogonalEdgeStyle;rounded=0;orthogonalLoop=1;jettySize=auto;html=1;" edge="1" parent="1" source="QiJwT_M8jZvrQRE63DZS-16" target="QiJwT_M8jZvrQRE63DZS-42">
          <mxGeometry relative="1" as="geometry" />
        </mxCell>
        <mxCell id="QiJwT_M8jZvrQRE63DZS-16" value="«IEventHandler»&lt;br&gt;&lt;b&gt;FeatureLoader&lt;/b&gt;" style="html=1;dropTarget=0;whiteSpace=wrap;fillColor=#e1d5e7;strokeColor=#9673a6;" vertex="1" parent="1">
          <mxGeometry x="1935" y="1790" width="160" height="60" as="geometry" />
        </mxCell>
        <mxCell id="QiJwT_M8jZvrQRE63DZS-17" value="" style="shape=module;jettyWidth=8;jettyHeight=4;" vertex="1" parent="QiJwT_M8jZvrQRE63DZS-16">
          <mxGeometry x="1" width="20" height="20" relative="1" as="geometry">
            <mxPoint x="-27" y="7" as="offset" />
          </mxGeometry>
        </mxCell>
        <mxCell id="QiJwT_M8jZvrQRE63DZS-48" style="edgeStyle=orthogonalEdgeStyle;rounded=0;orthogonalLoop=1;jettySize=auto;html=1;fillColor=#6a00ff;strokeColor=#3700CC;dashed=1;strokeWidth=2;exitX=0.5;exitY=0;exitDx=0;exitDy=0;" edge="1" parent="1" source="QiJwT_M8jZvrQRE63DZS-18" target="QiJwT_M8jZvrQRE63DZS-10">
          <mxGeometry relative="1" as="geometry">
            <Array as="points">
              <mxPoint x="2360" y="1790" />
              <mxPoint x="2360" y="1680" />
              <mxPoint x="979" y="1680" />
            </Array>
          </mxGeometry>
        </mxCell>
        <mxCell id="QiJwT_M8jZvrQRE63DZS-18" value="«IEventHandler»&lt;br&gt;&lt;b&gt;SNSPublisher&lt;/b&gt;" style="html=1;dropTarget=0;whiteSpace=wrap;fillColor=#e1d5e7;strokeColor=#9673a6;" vertex="1" parent="1">
          <mxGeometry x="2275" y="1790" width="160" height="60" as="geometry" />
        </mxCell>
        <mxCell id="QiJwT_M8jZvrQRE63DZS-19" value="" style="shape=module;jettyWidth=8;jettyHeight=4;" vertex="1" parent="QiJwT_M8jZvrQRE63DZS-18">
          <mxGeometry x="1" width="20" height="20" relative="1" as="geometry">
            <mxPoint x="-27" y="7" as="offset" />
          </mxGeometry>
        </mxCell>
        <mxCell id="QiJwT_M8jZvrQRE63DZS-29" style="edgeStyle=orthogonalEdgeStyle;rounded=0;orthogonalLoop=1;jettySize=auto;html=1;entryX=1;entryY=0.5;entryDx=0;entryDy=0;fillColor=#d5e8d4;strokeColor=#82b366;dashed=1;strokeWidth=2;" edge="1" parent="1" source="QiJwT_M8jZvrQRE63DZS-20" target="IS7OfrcVgxXRb15TEPke-9">
          <mxGeometry relative="1" as="geometry">
            <Array as="points">
              <mxPoint x="1130" y="2050" />
              <mxPoint x="1130" y="535" />
            </Array>
          </mxGeometry>
        </mxCell>
        <mxCell id="QiJwT_M8jZvrQRE63DZS-20" value="«IStorage»&lt;br&gt;&lt;b&gt;PsqlStorage&lt;/b&gt;" style="html=1;dropTarget=0;whiteSpace=wrap;fillColor=#60a917;strokeColor=#2D7600;fontColor=#ffffff;" vertex="1" parent="1">
          <mxGeometry x="1935" y="2010" width="160" height="60" as="geometry" />
        </mxCell>
        <mxCell id="QiJwT_M8jZvrQRE63DZS-21" value="" style="shape=module;jettyWidth=8;jettyHeight=4;" vertex="1" parent="QiJwT_M8jZvrQRE63DZS-20">
          <mxGeometry x="1" width="20" height="20" relative="1" as="geometry">
            <mxPoint x="-27" y="7" as="offset" />
          </mxGeometry>
        </mxCell>
        <mxCell id="QiJwT_M8jZvrQRE63DZS-107" style="edgeStyle=orthogonalEdgeStyle;rounded=0;orthogonalLoop=1;jettySize=auto;html=1;" edge="1" parent="1" source="QiJwT_M8jZvrQRE63DZS-22" target="QiJwT_M8jZvrQRE63DZS-26">
          <mxGeometry relative="1" as="geometry" />
        </mxCell>
        <mxCell id="QiJwT_M8jZvrQRE63DZS-108" style="edgeStyle=orthogonalEdgeStyle;rounded=0;orthogonalLoop=1;jettySize=auto;html=1;" edge="1" parent="1" source="QiJwT_M8jZvrQRE63DZS-22" target="QiJwT_M8jZvrQRE63DZS-24">
          <mxGeometry relative="1" as="geometry" />
        </mxCell>
        <mxCell id="QiJwT_M8jZvrQRE63DZS-22" value="«IEventHandler»&lt;br&gt;&lt;b&gt;ValidationHandler&lt;/b&gt;" style="html=1;dropTarget=0;whiteSpace=wrap;fillColor=#d5e8d4;strokeColor=#82b366;" vertex="1" parent="1">
          <mxGeometry x="2864" y="1920" width="160" height="60" as="geometry" />
        </mxCell>
        <mxCell id="QiJwT_M8jZvrQRE63DZS-23" value="" style="shape=module;jettyWidth=8;jettyHeight=4;" vertex="1" parent="QiJwT_M8jZvrQRE63DZS-22">
          <mxGeometry x="1" width="20" height="20" relative="1" as="geometry">
            <mxPoint x="-27" y="7" as="offset" />
          </mxGeometry>
        </mxCell>
        <mxCell id="QiJwT_M8jZvrQRE63DZS-112" style="edgeStyle=orthogonalEdgeStyle;rounded=0;orthogonalLoop=1;jettySize=auto;html=1;entryX=0;entryY=0.5;entryDx=0;entryDy=0;" edge="1" parent="1" source="QiJwT_M8jZvrQRE63DZS-24" target="QiJwT_M8jZvrQRE63DZS-73">
          <mxGeometry relative="1" as="geometry" />
        </mxCell>
        <mxCell id="QiJwT_M8jZvrQRE63DZS-24" value="«IEventHandler»&lt;br&gt;&lt;b&gt;EndorseHandler&lt;/b&gt;" style="html=1;dropTarget=0;whiteSpace=wrap;fillColor=#d5e8d4;strokeColor=#82b366;" vertex="1" parent="1">
          <mxGeometry x="3095" y="1920" width="160" height="60" as="geometry" />
        </mxCell>
        <mxCell id="QiJwT_M8jZvrQRE63DZS-25" value="" style="shape=module;jettyWidth=8;jettyHeight=4;" vertex="1" parent="QiJwT_M8jZvrQRE63DZS-24">
          <mxGeometry x="1" width="20" height="20" relative="1" as="geometry">
            <mxPoint x="-27" y="7" as="offset" />
          </mxGeometry>
        </mxCell>
        <mxCell id="QiJwT_M8jZvrQRE63DZS-26" value="« ? »&lt;br&gt;&lt;b&gt;ValidationLIbrary&lt;/b&gt;" style="html=1;dropTarget=0;whiteSpace=wrap;fillColor=#1ba1e2;strokeColor=#006EAF;fontColor=#ffffff;" vertex="1" parent="1">
          <mxGeometry x="2864.5" y="2070" width="160" height="60" as="geometry" />
        </mxCell>
        <mxCell id="QiJwT_M8jZvrQRE63DZS-27" value="" style="shape=module;jettyWidth=8;jettyHeight=4;" vertex="1" parent="QiJwT_M8jZvrQRE63DZS-26">
          <mxGeometry x="1" width="20" height="20" relative="1" as="geometry">
            <mxPoint x="-27" y="7" as="offset" />
          </mxGeometry>
        </mxCell>
        <mxCell id="QiJwT_M8jZvrQRE63DZS-38" style="edgeStyle=orthogonalEdgeStyle;rounded=0;orthogonalLoop=1;jettySize=auto;html=1;entryX=1;entryY=0.5;entryDx=0;entryDy=0;fillColor=#d5e8d4;strokeColor=#82b366;dashed=1;strokeWidth=2;" edge="1" parent="1" source="QiJwT_M8jZvrQRE63DZS-35" target="IS7OfrcVgxXRb15TEPke-9">
          <mxGeometry relative="1" as="geometry">
            <Array as="points">
              <mxPoint x="1130" y="2100" />
              <mxPoint x="1130" y="535" />
            </Array>
          </mxGeometry>
        </mxCell>
        <mxCell id="QiJwT_M8jZvrQRE63DZS-35" value="«IStorage»&lt;br&gt;&lt;b&gt;PsqlStorage&lt;/b&gt;" style="html=1;dropTarget=0;whiteSpace=wrap;fillColor=#60a917;strokeColor=#2D7600;fontColor=#ffffff;" vertex="1" parent="1">
          <mxGeometry x="2625" y="2070" width="160" height="60" as="geometry" />
        </mxCell>
        <mxCell id="QiJwT_M8jZvrQRE63DZS-36" value="" style="shape=module;jettyWidth=8;jettyHeight=4;" vertex="1" parent="QiJwT_M8jZvrQRE63DZS-35">
          <mxGeometry x="1" width="20" height="20" relative="1" as="geometry">
            <mxPoint x="-27" y="7" as="offset" />
          </mxGeometry>
        </mxCell>
        <mxCell id="QiJwT_M8jZvrQRE63DZS-44" style="edgeStyle=orthogonalEdgeStyle;rounded=0;orthogonalLoop=1;jettySize=auto;html=1;entryX=1;entryY=0.5;entryDx=0;entryDy=0;dashed=1;strokeWidth=2;fillColor=#d5e8d4;strokeColor=#82b366;" edge="1" parent="1" source="QiJwT_M8jZvrQRE63DZS-42" target="IS7OfrcVgxXRb15TEPke-9">
          <mxGeometry relative="1" as="geometry">
            <Array as="points">
              <mxPoint x="1130" y="1740" />
              <mxPoint x="1130" y="535" />
            </Array>
          </mxGeometry>
        </mxCell>
        <mxCell id="QiJwT_M8jZvrQRE63DZS-42" value="«IStorage»&lt;br&gt;&lt;b&gt;PsqlStorage&lt;/b&gt;" style="html=1;dropTarget=0;whiteSpace=wrap;fillColor=#60a917;strokeColor=#2D7600;fontColor=#ffffff;" vertex="1" parent="1">
          <mxGeometry x="1935" y="1698" width="160" height="60" as="geometry" />
        </mxCell>
        <mxCell id="QiJwT_M8jZvrQRE63DZS-43" value="" style="shape=module;jettyWidth=8;jettyHeight=4;" vertex="1" parent="QiJwT_M8jZvrQRE63DZS-42">
          <mxGeometry x="1" width="20" height="20" relative="1" as="geometry">
            <mxPoint x="-27" y="7" as="offset" />
          </mxGeometry>
        </mxCell>
        <mxCell id="QiJwT_M8jZvrQRE63DZS-55" style="edgeStyle=orthogonalEdgeStyle;rounded=0;orthogonalLoop=1;jettySize=auto;html=1;entryX=0.5;entryY=1;entryDx=0;entryDy=0;" edge="1" parent="1" source="QiJwT_M8jZvrQRE63DZS-49" target="QiJwT_M8jZvrQRE63DZS-52">
          <mxGeometry relative="1" as="geometry" />
        </mxCell>
        <mxCell id="QiJwT_M8jZvrQRE63DZS-49" value="«IEventHandler»&lt;br&gt;&lt;b&gt;DefaultStorageHandler&lt;/b&gt;" style="html=1;dropTarget=0;whiteSpace=wrap;fillColor=#d5e8d4;strokeColor=#82b366;" vertex="1" parent="1">
          <mxGeometry x="1800" y="750" width="160" height="60" as="geometry" />
        </mxCell>
        <mxCell id="QiJwT_M8jZvrQRE63DZS-50" value="" style="shape=module;jettyWidth=8;jettyHeight=4;" vertex="1" parent="QiJwT_M8jZvrQRE63DZS-49">
          <mxGeometry x="1" width="20" height="20" relative="1" as="geometry">
            <mxPoint x="-27" y="7" as="offset" />
          </mxGeometry>
        </mxCell>
        <mxCell id="QiJwT_M8jZvrQRE63DZS-56" style="edgeStyle=orthogonalEdgeStyle;rounded=0;orthogonalLoop=1;jettySize=auto;html=1;entryX=1;entryY=0.5;entryDx=0;entryDy=0;fillColor=#d5e8d4;strokeColor=#82b366;dashed=1;strokeWidth=2;" edge="1" parent="1" source="QiJwT_M8jZvrQRE63DZS-52" target="IS7OfrcVgxXRb15TEPke-9">
          <mxGeometry relative="1" as="geometry" />
        </mxCell>
        <mxCell id="QiJwT_M8jZvrQRE63DZS-52" value="«IStorage»&lt;br&gt;&lt;b&gt;PsqlStorage&lt;/b&gt;" style="html=1;dropTarget=0;whiteSpace=wrap;fillColor=#60a917;strokeColor=#2D7600;fontColor=#ffffff;" vertex="1" parent="1">
          <mxGeometry x="1800" y="580" width="160" height="60" as="geometry" />
        </mxCell>
        <mxCell id="QiJwT_M8jZvrQRE63DZS-53" value="" style="shape=module;jettyWidth=8;jettyHeight=4;" vertex="1" parent="QiJwT_M8jZvrQRE63DZS-52">
          <mxGeometry x="1" width="20" height="20" relative="1" as="geometry">
            <mxPoint x="-27" y="7" as="offset" />
          </mxGeometry>
        </mxCell>
        <mxCell id="QiJwT_M8jZvrQRE63DZS-58" value="Subscriptions" style="shape=umlFrame;whiteSpace=wrap;html=1;pointerEvents=0;width=88;height=40;fillColor=#008a00;strokeColor=#005700;dashed=1;strokeWidth=2;fontColor=#ffffff;dashPattern=1 1;" vertex="1" parent="1">
          <mxGeometry x="1262.5" y="1440" width="2277.5" height="750" as="geometry" />
        </mxCell>
        <mxCell id="QiJwT_M8jZvrQRE63DZS-60" value="TDB: Describe subscriptions" style="html=1;shadow=0;dashed=0;shape=mxgraph.bootstrap.rrect;rSize=5;strokeColor=#999999;strokeWidth=1;fillColor=#FFFFFF;fontColor=#6C767D;whiteSpace=wrap;align=left;verticalAlign=middle;spacingLeft=10;fontSize=14;spacing=10;" vertex="1" parent="1">
          <mxGeometry x="1520" y="1458" width="600" height="192" as="geometry" />
        </mxCell>
        <mxCell id="QiJwT_M8jZvrQRE63DZS-68" style="edgeStyle=orthogonalEdgeStyle;rounded=0;orthogonalLoop=1;jettySize=auto;html=1;entryX=1;entryY=0.5;entryDx=0;entryDy=0;fillColor=#d5e8d4;strokeColor=#82b366;dashed=1;strokeWidth=2;exitX=0;exitY=0.5;exitDx=0;exitDy=0;" edge="1" parent="1" source="QiJwT_M8jZvrQRE63DZS-61" target="IS7OfrcVgxXRb15TEPke-9">
          <mxGeometry relative="1" as="geometry">
            <Array as="points">
              <mxPoint x="1130" y="1520" />
              <mxPoint x="1130" y="535" />
            </Array>
          </mxGeometry>
        </mxCell>
        <mxCell id="QiJwT_M8jZvrQRE63DZS-61" value="«IStorage»&lt;br&gt;&lt;b&gt;PsqlStorage&lt;/b&gt;" style="html=1;dropTarget=0;whiteSpace=wrap;fillColor=#60a917;strokeColor=#2D7600;fontColor=#ffffff;" vertex="1" parent="1">
          <mxGeometry x="1280" y="1490" width="160" height="60" as="geometry" />
        </mxCell>
        <mxCell id="QiJwT_M8jZvrQRE63DZS-62" value="" style="shape=module;jettyWidth=8;jettyHeight=4;" vertex="1" parent="QiJwT_M8jZvrQRE63DZS-61">
          <mxGeometry x="1" width="20" height="20" relative="1" as="geometry">
            <mxPoint x="-27" y="7" as="offset" />
          </mxGeometry>
        </mxCell>
        <mxCell id="QiJwT_M8jZvrQRE63DZS-69" style="edgeStyle=orthogonalEdgeStyle;rounded=0;orthogonalLoop=1;jettySize=auto;html=1;" edge="1" parent="1" source="QiJwT_M8jZvrQRE63DZS-64" target="QiJwT_M8jZvrQRE63DZS-13">
          <mxGeometry relative="1" as="geometry">
            <Array as="points">
              <mxPoint x="1330" y="1950" />
            </Array>
          </mxGeometry>
        </mxCell>
        <mxCell id="QiJwT_M8jZvrQRE63DZS-89" value="&amp;lt; TransactionEvent &amp;gt;" style="edgeLabel;html=1;align=center;verticalAlign=middle;resizable=0;points=[];" vertex="1" connectable="0" parent="QiJwT_M8jZvrQRE63DZS-69">
          <mxGeometry x="0.1434" y="-2" relative="1" as="geometry">
            <mxPoint x="120" y="-2" as="offset" />
          </mxGeometry>
        </mxCell>
        <mxCell id="QiJwT_M8jZvrQRE63DZS-70" style="edgeStyle=orthogonalEdgeStyle;rounded=0;orthogonalLoop=1;jettySize=auto;html=1;" edge="1" parent="1" source="QiJwT_M8jZvrQRE63DZS-64" target="QiJwT_M8jZvrQRE63DZS-11">
          <mxGeometry relative="1" as="geometry">
            <mxPoint x="1595" y="1750" as="targetPoint" />
            <Array as="points">
              <mxPoint x="1368" y="1820" />
            </Array>
          </mxGeometry>
        </mxCell>
        <mxCell id="QiJwT_M8jZvrQRE63DZS-90" value="&amp;lt; TransactionEvent &amp;gt;" style="edgeLabel;html=1;align=center;verticalAlign=middle;resizable=0;points=[];" vertex="1" connectable="0" parent="QiJwT_M8jZvrQRE63DZS-70">
          <mxGeometry x="-0.1349" y="-2" relative="1" as="geometry">
            <mxPoint x="109" y="12" as="offset" />
          </mxGeometry>
        </mxCell>
        <mxCell id="QiJwT_M8jZvrQRE63DZS-148" style="edgeStyle=orthogonalEdgeStyle;rounded=0;orthogonalLoop=1;jettySize=auto;html=1;entryX=1;entryY=0.5;entryDx=0;entryDy=0;" edge="1" parent="1" source="QiJwT_M8jZvrQRE63DZS-64" target="QiJwT_M8jZvrQRE63DZS-61">
          <mxGeometry relative="1" as="geometry">
            <Array as="points">
              <mxPoint x="1500" y="1615" />
              <mxPoint x="1500" y="1520" />
            </Array>
          </mxGeometry>
        </mxCell>
        <mxCell id="QiJwT_M8jZvrQRE63DZS-64" value="« INaksha »&lt;br&gt;&lt;b&gt;Naksha-Hub&lt;br&gt;Internal Storage Observer&lt;/b&gt;" style="html=1;dropTarget=0;whiteSpace=wrap;fillColor=#d5e8d4;strokeColor=#82b366;" vertex="1" parent="1">
          <mxGeometry x="1280" y="1580" width="195" height="70" as="geometry" />
        </mxCell>
        <mxCell id="QiJwT_M8jZvrQRE63DZS-65" value="" style="shape=module;jettyWidth=8;jettyHeight=4;" vertex="1" parent="QiJwT_M8jZvrQRE63DZS-64">
          <mxGeometry x="1" width="20" height="20" relative="1" as="geometry">
            <mxPoint x="-27" y="7" as="offset" />
          </mxGeometry>
        </mxCell>
        <mxCell id="QiJwT_M8jZvrQRE63DZS-113" style="edgeStyle=orthogonalEdgeStyle;rounded=0;orthogonalLoop=1;jettySize=auto;html=1;" edge="1" parent="1" source="QiJwT_M8jZvrQRE63DZS-73" target="QiJwT_M8jZvrQRE63DZS-109">
          <mxGeometry relative="1" as="geometry" />
        </mxCell>
        <mxCell id="QiJwT_M8jZvrQRE63DZS-73" value="«IEventHandler»&lt;br&gt;&lt;b&gt;DefaultStorageHandler&lt;/b&gt;" style="html=1;dropTarget=0;whiteSpace=wrap;fillColor=#d5e8d4;strokeColor=#82b366;" vertex="1" parent="1">
          <mxGeometry x="3335" y="1920" width="160" height="60" as="geometry" />
        </mxCell>
        <mxCell id="QiJwT_M8jZvrQRE63DZS-74" value="" style="shape=module;jettyWidth=8;jettyHeight=4;" vertex="1" parent="QiJwT_M8jZvrQRE63DZS-73">
          <mxGeometry x="1" width="20" height="20" relative="1" as="geometry">
            <mxPoint x="-27" y="7" as="offset" />
          </mxGeometry>
        </mxCell>
        <mxCell id="QiJwT_M8jZvrQRE63DZS-100" style="edgeStyle=orthogonalEdgeStyle;rounded=0;orthogonalLoop=1;jettySize=auto;html=1;" edge="1" parent="1" source="QiJwT_M8jZvrQRE63DZS-80" target="QiJwT_M8jZvrQRE63DZS-20">
          <mxGeometry relative="1" as="geometry" />
        </mxCell>
        <mxCell id="QiJwT_M8jZvrQRE63DZS-101" style="edgeStyle=orthogonalEdgeStyle;rounded=0;orthogonalLoop=1;jettySize=auto;html=1;" edge="1" parent="1" source="QiJwT_M8jZvrQRE63DZS-80" target="QiJwT_M8jZvrQRE63DZS-85">
          <mxGeometry relative="1" as="geometry" />
        </mxCell>
        <mxCell id="QiJwT_M8jZvrQRE63DZS-102" value="&amp;lt; FullTransactionEvent &amp;gt;" style="edgeLabel;html=1;align=center;verticalAlign=middle;resizable=0;points=[];" vertex="1" connectable="0" parent="QiJwT_M8jZvrQRE63DZS-101">
          <mxGeometry x="-0.1442" relative="1" as="geometry">
            <mxPoint x="13" as="offset" />
          </mxGeometry>
        </mxCell>
        <mxCell id="QiJwT_M8jZvrQRE63DZS-80" value="«IEventHandler»&lt;br&gt;&lt;b&gt;FeatureLoader&lt;/b&gt;" style="html=1;dropTarget=0;whiteSpace=wrap;fillColor=#e1d5e7;strokeColor=#9673a6;" vertex="1" parent="1">
          <mxGeometry x="1935" y="1920" width="160" height="60" as="geometry" />
        </mxCell>
        <mxCell id="QiJwT_M8jZvrQRE63DZS-81" value="" style="shape=module;jettyWidth=8;jettyHeight=4;" vertex="1" parent="QiJwT_M8jZvrQRE63DZS-80">
          <mxGeometry x="1" width="20" height="20" relative="1" as="geometry">
            <mxPoint x="-27" y="7" as="offset" />
          </mxGeometry>
        </mxCell>
        <mxCell id="QiJwT_M8jZvrQRE63DZS-105" style="edgeStyle=orthogonalEdgeStyle;rounded=0;orthogonalLoop=1;jettySize=auto;html=1;" edge="1" parent="1" source="QiJwT_M8jZvrQRE63DZS-82" target="QiJwT_M8jZvrQRE63DZS-35">
          <mxGeometry relative="1" as="geometry" />
        </mxCell>
        <mxCell id="QiJwT_M8jZvrQRE63DZS-106" style="edgeStyle=orthogonalEdgeStyle;rounded=0;orthogonalLoop=1;jettySize=auto;html=1;" edge="1" parent="1" source="QiJwT_M8jZvrQRE63DZS-82" target="QiJwT_M8jZvrQRE63DZS-22">
          <mxGeometry relative="1" as="geometry" />
        </mxCell>
        <mxCell id="QiJwT_M8jZvrQRE63DZS-82" value="«IEventHandler»&lt;br&gt;&lt;b&gt;ContextLoader&lt;/b&gt;" style="html=1;dropTarget=0;whiteSpace=wrap;fillColor=#d5e8d4;strokeColor=#82b366;" vertex="1" parent="1">
          <mxGeometry x="2625" y="1920" width="160" height="60" as="geometry" />
        </mxCell>
        <mxCell id="QiJwT_M8jZvrQRE63DZS-83" value="" style="shape=module;jettyWidth=8;jettyHeight=4;" vertex="1" parent="QiJwT_M8jZvrQRE63DZS-82">
          <mxGeometry x="1" width="20" height="20" relative="1" as="geometry">
            <mxPoint x="-27" y="7" as="offset" />
          </mxGeometry>
        </mxCell>
        <mxCell id="QiJwT_M8jZvrQRE63DZS-103" style="edgeStyle=orthogonalEdgeStyle;rounded=0;orthogonalLoop=1;jettySize=auto;html=1;" edge="1" parent="1" source="QiJwT_M8jZvrQRE63DZS-85" target="QiJwT_M8jZvrQRE63DZS-82">
          <mxGeometry relative="1" as="geometry" />
        </mxCell>
        <mxCell id="QiJwT_M8jZvrQRE63DZS-104" value="&amp;lt; ModifyFeaturesEvent &amp;gt;" style="edgeLabel;html=1;align=center;verticalAlign=middle;resizable=0;points=[];" vertex="1" connectable="0" parent="QiJwT_M8jZvrQRE63DZS-103">
          <mxGeometry x="-0.2118" y="2" relative="1" as="geometry">
            <mxPoint x="15" y="2" as="offset" />
          </mxGeometry>
        </mxCell>
        <mxCell id="QiJwT_M8jZvrQRE63DZS-85" value="«IEventHandler»&lt;br&gt;&lt;b&gt;TransactionEvent&lt;br&gt;to ModifyFeaturesEvent&lt;br&gt;Handler&lt;br&gt;&lt;/b&gt;" style="html=1;dropTarget=0;whiteSpace=wrap;fillColor=#d5e8d4;strokeColor=#82b366;" vertex="1" parent="1">
          <mxGeometry x="2275" y="1920" width="160" height="60" as="geometry" />
        </mxCell>
        <mxCell id="QiJwT_M8jZvrQRE63DZS-86" value="" style="shape=module;jettyWidth=8;jettyHeight=4;" vertex="1" parent="QiJwT_M8jZvrQRE63DZS-85">
          <mxGeometry x="1" width="20" height="20" relative="1" as="geometry">
            <mxPoint x="-27" y="7" as="offset" />
          </mxGeometry>
        </mxCell>
        <mxCell id="QiJwT_M8jZvrQRE63DZS-87" value="«IEventHandler»&lt;br&gt;&lt;b&gt;EchoHandler&lt;/b&gt;" style="html=1;dropTarget=0;whiteSpace=wrap;fillColor=#d5e8d4;strokeColor=#82b366;" vertex="1" parent="1">
          <mxGeometry x="2360" y="1240" width="160" height="60" as="geometry" />
        </mxCell>
        <mxCell id="QiJwT_M8jZvrQRE63DZS-88" value="" style="shape=module;jettyWidth=8;jettyHeight=4;" vertex="1" parent="QiJwT_M8jZvrQRE63DZS-87">
          <mxGeometry x="1" width="20" height="20" relative="1" as="geometry">
            <mxPoint x="-27" y="7" as="offset" />
          </mxGeometry>
        </mxCell>
        <mxCell id="QiJwT_M8jZvrQRE63DZS-130" style="edgeStyle=orthogonalEdgeStyle;rounded=0;orthogonalLoop=1;jettySize=auto;html=1;" edge="1" parent="1" source="QiJwT_M8jZvrQRE63DZS-94" target="QiJwT_M8jZvrQRE63DZS-126">
          <mxGeometry relative="1" as="geometry" />
        </mxCell>
        <mxCell id="QiJwT_M8jZvrQRE63DZS-145" value="&amp;lt; ModifyFeatureEvent &amp;gt;" style="edgeLabel;html=1;align=center;verticalAlign=middle;resizable=0;points=[];" vertex="1" connectable="0" parent="QiJwT_M8jZvrQRE63DZS-130">
          <mxGeometry x="-0.1865" y="-2" relative="1" as="geometry">
            <mxPoint x="8" as="offset" />
          </mxGeometry>
        </mxCell>
        <mxCell id="QiJwT_M8jZvrQRE63DZS-94" value="«Space»&lt;br&gt;&lt;b&gt;Topology-Test&lt;/b&gt;" style="html=1;dropTarget=0;whiteSpace=wrap;fillColor=#d5e8d4;strokeColor=#82b366;" vertex="1" parent="1">
          <mxGeometry x="1270" y="1240" width="205" height="60" as="geometry" />
        </mxCell>
        <mxCell id="QiJwT_M8jZvrQRE63DZS-95" value="" style="shape=module;jettyWidth=8;jettyHeight=4;" vertex="1" parent="QiJwT_M8jZvrQRE63DZS-94">
          <mxGeometry x="1" width="20" height="20" relative="1" as="geometry">
            <mxPoint x="-27" y="7" as="offset" />
          </mxGeometry>
        </mxCell>
        <mxCell id="QiJwT_M8jZvrQRE63DZS-142" style="edgeStyle=orthogonalEdgeStyle;rounded=0;orthogonalLoop=1;jettySize=auto;html=1;" edge="1" parent="1" source="QiJwT_M8jZvrQRE63DZS-96" target="QiJwT_M8jZvrQRE63DZS-140">
          <mxGeometry relative="1" as="geometry" />
        </mxCell>
        <mxCell id="QiJwT_M8jZvrQRE63DZS-96" value="«Space»&lt;br&gt;&lt;b&gt;Topology-Test-View&lt;/b&gt;" style="html=1;dropTarget=0;whiteSpace=wrap;fillColor=#d5e8d4;strokeColor=#82b366;" vertex="1" parent="1">
          <mxGeometry x="1270" y="1120" width="205" height="60" as="geometry" />
        </mxCell>
        <mxCell id="QiJwT_M8jZvrQRE63DZS-97" value="" style="shape=module;jettyWidth=8;jettyHeight=4;" vertex="1" parent="QiJwT_M8jZvrQRE63DZS-96">
          <mxGeometry x="1" width="20" height="20" relative="1" as="geometry">
            <mxPoint x="-27" y="7" as="offset" />
          </mxGeometry>
        </mxCell>
        <mxCell id="QiJwT_M8jZvrQRE63DZS-114" style="edgeStyle=orthogonalEdgeStyle;rounded=0;orthogonalLoop=1;jettySize=auto;html=1;entryX=1;entryY=0.5;entryDx=0;entryDy=0;dashed=1;strokeWidth=2;fillColor=#d5e8d4;strokeColor=#82b366;" edge="1" parent="1" source="QiJwT_M8jZvrQRE63DZS-109" target="IS7OfrcVgxXRb15TEPke-9">
          <mxGeometry relative="1" as="geometry">
            <Array as="points">
              <mxPoint x="1130" y="2150" />
              <mxPoint x="1130" y="535" />
            </Array>
          </mxGeometry>
        </mxCell>
        <mxCell id="QiJwT_M8jZvrQRE63DZS-109" value="«IStorage»&lt;br&gt;&lt;b&gt;PsqlStorage&lt;/b&gt;" style="html=1;dropTarget=0;whiteSpace=wrap;fillColor=#60a917;strokeColor=#2D7600;fontColor=#ffffff;" vertex="1" parent="1">
          <mxGeometry x="3335" y="2110" width="160" height="60" as="geometry" />
        </mxCell>
        <mxCell id="QiJwT_M8jZvrQRE63DZS-110" value="" style="shape=module;jettyWidth=8;jettyHeight=4;" vertex="1" parent="QiJwT_M8jZvrQRE63DZS-109">
          <mxGeometry x="1" width="20" height="20" relative="1" as="geometry">
            <mxPoint x="-27" y="7" as="offset" />
          </mxGeometry>
        </mxCell>
        <mxCell id="QiJwT_M8jZvrQRE63DZS-132" style="edgeStyle=orthogonalEdgeStyle;rounded=0;orthogonalLoop=1;jettySize=auto;html=1;" edge="1" parent="1" source="QiJwT_M8jZvrQRE63DZS-116" target="QiJwT_M8jZvrQRE63DZS-118">
          <mxGeometry relative="1" as="geometry" />
        </mxCell>
        <mxCell id="QiJwT_M8jZvrQRE63DZS-135" style="edgeStyle=orthogonalEdgeStyle;rounded=0;orthogonalLoop=1;jettySize=auto;html=1;entryX=0.5;entryY=0;entryDx=0;entryDy=0;" edge="1" parent="1" source="QiJwT_M8jZvrQRE63DZS-116" target="QiJwT_M8jZvrQRE63DZS-120">
          <mxGeometry relative="1" as="geometry" />
        </mxCell>
        <mxCell id="QiJwT_M8jZvrQRE63DZS-116" value="«IEventHandler»&lt;br&gt;&lt;b&gt;ValidationHandler&lt;/b&gt;" style="html=1;dropTarget=0;whiteSpace=wrap;fillColor=#d5e8d4;strokeColor=#82b366;" vertex="1" parent="1">
          <mxGeometry x="1860" y="1240" width="160" height="60" as="geometry" />
        </mxCell>
        <mxCell id="QiJwT_M8jZvrQRE63DZS-117" value="" style="shape=module;jettyWidth=8;jettyHeight=4;" vertex="1" parent="QiJwT_M8jZvrQRE63DZS-116">
          <mxGeometry x="1" width="20" height="20" relative="1" as="geometry">
            <mxPoint x="-27" y="7" as="offset" />
          </mxGeometry>
        </mxCell>
        <mxCell id="QiJwT_M8jZvrQRE63DZS-138" style="edgeStyle=orthogonalEdgeStyle;rounded=0;orthogonalLoop=1;jettySize=auto;html=1;" edge="1" parent="1" source="QiJwT_M8jZvrQRE63DZS-118" target="QiJwT_M8jZvrQRE63DZS-87">
          <mxGeometry relative="1" as="geometry" />
        </mxCell>
        <mxCell id="QiJwT_M8jZvrQRE63DZS-118" value="«IEventHandler»&lt;br&gt;&lt;b&gt;EndorseHandler&lt;/b&gt;" style="html=1;dropTarget=0;whiteSpace=wrap;fillColor=#d5e8d4;strokeColor=#82b366;" vertex="1" parent="1">
          <mxGeometry x="2110" y="1240" width="160" height="60" as="geometry" />
        </mxCell>
        <mxCell id="QiJwT_M8jZvrQRE63DZS-119" value="" style="shape=module;jettyWidth=8;jettyHeight=4;" vertex="1" parent="QiJwT_M8jZvrQRE63DZS-118">
          <mxGeometry x="1" width="20" height="20" relative="1" as="geometry">
            <mxPoint x="-27" y="7" as="offset" />
          </mxGeometry>
        </mxCell>
        <mxCell id="QiJwT_M8jZvrQRE63DZS-120" value="« ? »&lt;br&gt;&lt;b&gt;ValidationLIbrary&lt;/b&gt;" style="html=1;dropTarget=0;whiteSpace=wrap;fillColor=#1ba1e2;strokeColor=#006EAF;fontColor=#ffffff;" vertex="1" parent="1">
          <mxGeometry x="1860" y="1360" width="160" height="60" as="geometry" />
        </mxCell>
        <mxCell id="QiJwT_M8jZvrQRE63DZS-121" value="" style="shape=module;jettyWidth=8;jettyHeight=4;" vertex="1" parent="QiJwT_M8jZvrQRE63DZS-120">
          <mxGeometry x="1" width="20" height="20" relative="1" as="geometry">
            <mxPoint x="-27" y="7" as="offset" />
          </mxGeometry>
        </mxCell>
        <mxCell id="QiJwT_M8jZvrQRE63DZS-137" style="edgeStyle=orthogonalEdgeStyle;rounded=0;orthogonalLoop=1;jettySize=auto;html=1;entryX=1;entryY=0.5;entryDx=0;entryDy=0;dashed=1;strokeWidth=2;fillColor=#60a917;strokeColor=#2D7600;" edge="1" parent="1" source="QiJwT_M8jZvrQRE63DZS-122" target="IS7OfrcVgxXRb15TEPke-9">
          <mxGeometry relative="1" as="geometry">
            <Array as="points">
              <mxPoint x="1130" y="1390" />
              <mxPoint x="1130" y="535" />
            </Array>
          </mxGeometry>
        </mxCell>
        <mxCell id="QiJwT_M8jZvrQRE63DZS-122" value="«IStorage»&lt;br&gt;&lt;b&gt;PsqlStorage&lt;/b&gt;" style="html=1;dropTarget=0;whiteSpace=wrap;fillColor=#60a917;strokeColor=#2D7600;fontColor=#ffffff;" vertex="1" parent="1">
          <mxGeometry x="1640" y="1360" width="160" height="60" as="geometry" />
        </mxCell>
        <mxCell id="QiJwT_M8jZvrQRE63DZS-123" value="" style="shape=module;jettyWidth=8;jettyHeight=4;" vertex="1" parent="QiJwT_M8jZvrQRE63DZS-122">
          <mxGeometry x="1" width="20" height="20" relative="1" as="geometry">
            <mxPoint x="-27" y="7" as="offset" />
          </mxGeometry>
        </mxCell>
        <mxCell id="QiJwT_M8jZvrQRE63DZS-131" style="edgeStyle=orthogonalEdgeStyle;rounded=0;orthogonalLoop=1;jettySize=auto;html=1;entryX=0;entryY=0.5;entryDx=0;entryDy=0;" edge="1" parent="1" source="QiJwT_M8jZvrQRE63DZS-126" target="QiJwT_M8jZvrQRE63DZS-116">
          <mxGeometry relative="1" as="geometry" />
        </mxCell>
        <mxCell id="QiJwT_M8jZvrQRE63DZS-136" style="edgeStyle=orthogonalEdgeStyle;rounded=0;orthogonalLoop=1;jettySize=auto;html=1;" edge="1" parent="1" source="QiJwT_M8jZvrQRE63DZS-126" target="QiJwT_M8jZvrQRE63DZS-122">
          <mxGeometry relative="1" as="geometry" />
        </mxCell>
        <mxCell id="QiJwT_M8jZvrQRE63DZS-126" value="«IEventHandler»&lt;br&gt;&lt;b&gt;ContextLoader&lt;/b&gt;" style="html=1;dropTarget=0;whiteSpace=wrap;fillColor=#d5e8d4;strokeColor=#82b366;" vertex="1" parent="1">
          <mxGeometry x="1640" y="1240" width="160" height="60" as="geometry" />
        </mxCell>
        <mxCell id="QiJwT_M8jZvrQRE63DZS-127" value="" style="shape=module;jettyWidth=8;jettyHeight=4;" vertex="1" parent="QiJwT_M8jZvrQRE63DZS-126">
          <mxGeometry x="1" width="20" height="20" relative="1" as="geometry">
            <mxPoint x="-27" y="7" as="offset" />
          </mxGeometry>
        </mxCell>
        <mxCell id="QiJwT_M8jZvrQRE63DZS-139" value="TDB: Describe try-run and try-view" style="html=1;shadow=0;dashed=0;shape=mxgraph.bootstrap.rrect;rSize=5;strokeColor=#999999;strokeWidth=1;fillColor=#FFFFFF;fontColor=#6C767D;whiteSpace=wrap;align=left;verticalAlign=middle;spacingLeft=10;fontSize=14;spacing=10;" vertex="1" parent="1">
          <mxGeometry x="1780" y="1090" width="430" height="136" as="geometry" />
        </mxCell>
        <mxCell id="QiJwT_M8jZvrQRE63DZS-143" style="edgeStyle=orthogonalEdgeStyle;rounded=0;orthogonalLoop=1;jettySize=auto;html=1;" edge="1" parent="1" source="QiJwT_M8jZvrQRE63DZS-140" target="QiJwT_M8jZvrQRE63DZS-94">
          <mxGeometry relative="1" as="geometry">
            <Array as="points">
              <mxPoint x="1660" y="1200" />
              <mxPoint x="1372" y="1200" />
            </Array>
          </mxGeometry>
        </mxCell>
        <mxCell id="QiJwT_M8jZvrQRE63DZS-144" style="edgeStyle=orthogonalEdgeStyle;rounded=0;orthogonalLoop=1;jettySize=auto;html=1;dashed=1;" edge="1" parent="1" source="QiJwT_M8jZvrQRE63DZS-140" target="IS7OfrcVgxXRb15TEPke-41">
          <mxGeometry relative="1" as="geometry">
            <Array as="points">
              <mxPoint x="1660" y="1080" />
              <mxPoint x="1220" y="1080" />
              <mxPoint x="1220" y="920" />
            </Array>
          </mxGeometry>
        </mxCell>
        <mxCell id="QiJwT_M8jZvrQRE63DZS-140" value="«IEventHandler»&lt;br&gt;&lt;b&gt;ViewHandler&lt;/b&gt;" style="html=1;dropTarget=0;whiteSpace=wrap;fillColor=#d5e8d4;strokeColor=#82b366;" vertex="1" parent="1">
          <mxGeometry x="1580" y="1120" width="160" height="60" as="geometry" />
        </mxCell>
        <mxCell id="QiJwT_M8jZvrQRE63DZS-141" value="" style="shape=module;jettyWidth=8;jettyHeight=4;" vertex="1" parent="QiJwT_M8jZvrQRE63DZS-140">
          <mxGeometry x="1" width="20" height="20" relative="1" as="geometry">
            <mxPoint x="-27" y="7" as="offset" />
          </mxGeometry>
        </mxCell>
      </root>
    </mxGraphModel>
  </diagram>
</mxfile>
